<svg width="1838" height="418" viewBox="0 0 1838 418" fill="none" xmlns="http://www.w3.org/2000/svg">
<rect width="1838" height="418" fill="white"/>
<path d="M78.6612 338.276C78.5476 337.13 78.0599 336.24 77.1982 335.605C76.3364 334.971 75.1669 334.653 73.6896 334.653C72.6858 334.653 71.8383 334.795 71.147 335.08C70.4557 335.354 69.9254 335.738 69.5561 336.23C69.1963 336.723 69.0163 337.281 69.0163 337.906C68.9974 338.427 69.1063 338.882 69.343 339.27C69.5893 339.658 69.9254 339.994 70.3516 340.278C70.7777 340.553 71.2701 340.795 71.8288 341.003C72.3875 341.202 72.9841 341.372 73.6186 341.514L76.2322 342.139C77.5012 342.423 78.666 342.802 79.7266 343.276C80.7872 343.749 81.7057 344.331 82.4822 345.023C83.2588 345.714 83.8601 346.528 84.2862 347.466C84.7218 348.403 84.9444 349.478 84.9538 350.69C84.9444 352.471 84.4898 354.014 83.5902 355.321C82.7 356.618 81.4122 357.627 79.7266 358.347C78.0504 359.057 76.0286 359.412 73.6612 359.412C71.3127 359.412 69.2673 359.052 67.5249 358.332C65.7919 357.613 64.4377 356.547 63.4624 355.136C62.4964 353.716 61.9898 351.959 61.9425 349.866H67.8942C67.9605 350.842 68.2398 351.656 68.7322 352.31C69.2341 352.954 69.9018 353.441 70.7351 353.773C71.5779 354.095 72.5296 354.256 73.5902 354.256C74.6319 354.256 75.5362 354.104 76.3033 353.801C77.0798 353.498 77.6811 353.077 78.1072 352.537C78.5334 351.997 78.7464 351.377 78.7464 350.676C78.7464 350.023 78.5523 349.473 78.1641 349.028C77.7853 348.583 77.2266 348.205 76.4879 347.892C75.7588 347.58 74.8639 347.295 73.8033 347.04L70.6357 346.244C68.183 345.648 66.2464 344.715 64.826 343.446C63.4055 342.177 62.7 340.468 62.7095 338.318C62.7 336.557 63.1688 335.018 64.1158 333.702C65.0722 332.385 66.3838 331.358 68.0504 330.619C69.7171 329.881 71.611 329.511 73.7322 329.511C75.8913 329.511 77.7758 329.881 79.3857 330.619C81.005 331.358 82.2644 332.385 83.1641 333.702C84.0637 335.018 84.5277 336.543 84.5561 338.276H78.6612ZM88.9773 367.182V337.182H94.9432V340.847H95.2131C95.4782 340.259 95.8617 339.663 96.3636 339.057C96.875 338.441 97.5379 337.93 98.3523 337.523C99.1761 337.106 100.199 336.898 101.42 336.898C103.011 336.898 104.479 337.314 105.824 338.148C107.169 338.972 108.243 340.217 109.048 341.884C109.853 343.541 110.256 345.619 110.256 348.119C110.256 350.553 109.863 352.608 109.077 354.284C108.3 355.951 107.24 357.215 105.895 358.077C104.56 358.929 103.063 359.355 101.406 359.355C100.232 359.355 99.233 359.161 98.4091 358.773C97.5947 358.384 96.9271 357.897 96.4062 357.31C95.8854 356.713 95.4877 356.112 95.2131 355.506H95.0284V367.182H88.9773ZM94.9006 348.091C94.9006 349.388 95.0805 350.52 95.4403 351.486C95.8002 352.452 96.321 353.205 97.0028 353.744C97.6847 354.275 98.5133 354.54 99.4886 354.54C100.473 354.54 101.307 354.27 101.989 353.73C102.67 353.181 103.187 352.423 103.537 351.457C103.897 350.482 104.077 349.36 104.077 348.091C104.077 346.831 103.902 345.723 103.551 344.767C103.201 343.811 102.685 343.062 102.003 342.523C101.321 341.983 100.483 341.713 99.4886 341.713C98.5038 341.713 97.6705 341.973 96.9886 342.494C96.3163 343.015 95.8002 343.754 95.4403 344.71C95.0805 345.667 94.9006 346.794 94.9006 348.091ZM114.29 359V337.182H120.156V340.989H120.384C120.781 339.634 121.449 338.612 122.386 337.92C123.324 337.22 124.403 336.869 125.625 336.869C125.928 336.869 126.255 336.888 126.605 336.926C126.955 336.964 127.263 337.016 127.528 337.082V342.452C127.244 342.366 126.851 342.291 126.349 342.224C125.848 342.158 125.388 342.125 124.972 342.125C124.081 342.125 123.286 342.319 122.585 342.707C121.894 343.086 121.345 343.616 120.938 344.298C120.54 344.98 120.341 345.766 120.341 346.656V359H114.29ZM130.657 359V337.182H136.708V359H130.657ZM133.697 334.369C132.797 334.369 132.025 334.071 131.381 333.474C130.747 332.868 130.43 332.144 130.43 331.301C130.43 330.468 130.747 329.753 131.381 329.156C132.025 328.55 132.797 328.247 133.697 328.247C134.596 328.247 135.363 328.55 135.998 329.156C136.642 329.753 136.964 330.468 136.964 331.301C136.964 332.144 136.642 332.868 135.998 333.474C135.363 334.071 134.596 334.369 133.697 334.369ZM147.607 346.386V359H141.555V337.182H147.322V341.031H147.578C148.061 339.762 148.871 338.759 150.007 338.02C151.143 337.272 152.521 336.898 154.141 336.898C155.656 336.898 156.977 337.229 158.104 337.892C159.231 338.555 160.107 339.502 160.732 340.733C161.357 341.955 161.669 343.413 161.669 345.108V359H155.618V346.188C155.627 344.852 155.286 343.811 154.595 343.062C153.904 342.305 152.952 341.926 151.74 341.926C150.926 341.926 150.206 342.101 149.581 342.452C148.965 342.802 148.482 343.313 148.132 343.986C147.791 344.649 147.616 345.449 147.607 346.386ZM176.268 367.636C174.308 367.636 172.627 367.366 171.225 366.827C169.833 366.296 168.725 365.572 167.901 364.653C167.077 363.735 166.542 362.703 166.296 361.557L171.893 360.804C172.063 361.24 172.333 361.647 172.702 362.026C173.072 362.404 173.559 362.707 174.165 362.935C174.781 363.171 175.529 363.29 176.41 363.29C177.726 363.29 178.81 362.968 179.663 362.324C180.524 361.689 180.955 360.624 180.955 359.128V355.136H180.7C180.434 355.742 180.037 356.315 179.506 356.855C178.976 357.395 178.294 357.835 177.461 358.176C176.628 358.517 175.633 358.688 174.478 358.688C172.84 358.688 171.348 358.309 170.004 357.551C168.668 356.784 167.603 355.615 166.808 354.043C166.022 352.461 165.629 350.463 165.629 348.048C165.629 345.577 166.031 343.512 166.836 341.855C167.641 340.198 168.711 338.957 170.046 338.134C171.391 337.31 172.863 336.898 174.464 336.898C175.685 336.898 176.708 337.106 177.532 337.523C178.356 337.93 179.019 338.441 179.521 339.057C180.032 339.663 180.425 340.259 180.7 340.847H180.927V337.182H186.935V359.213C186.935 361.069 186.481 362.622 185.572 363.872C184.663 365.122 183.403 366.06 181.793 366.685C180.193 367.319 178.351 367.636 176.268 367.636ZM176.396 354.142C177.371 354.142 178.195 353.901 178.867 353.418C179.549 352.925 180.07 352.224 180.43 351.315C180.799 350.397 180.984 349.298 180.984 348.02C180.984 346.741 180.804 345.634 180.444 344.696C180.084 343.749 179.563 343.015 178.881 342.494C178.2 341.973 177.371 341.713 176.396 341.713C175.401 341.713 174.563 341.983 173.881 342.523C173.2 343.053 172.683 343.792 172.333 344.739C171.983 345.686 171.808 346.779 171.808 348.02C171.808 349.279 171.983 350.368 172.333 351.287C172.693 352.196 173.209 352.902 173.881 353.403C174.563 353.896 175.401 354.142 176.396 354.142ZM201.122 359V329.909H212.77C214.91 329.909 216.695 330.226 218.125 330.861C219.555 331.495 220.63 332.376 221.349 333.503C222.069 334.62 222.429 335.908 222.429 337.366C222.429 338.503 222.202 339.502 221.747 340.364C221.293 341.216 220.668 341.917 219.872 342.466C219.086 343.006 218.187 343.389 217.173 343.616V343.901C218.281 343.948 219.318 344.26 220.284 344.838C221.259 345.416 222.05 346.225 222.656 347.267C223.262 348.299 223.565 349.53 223.565 350.96C223.565 352.504 223.182 353.882 222.415 355.094C221.657 356.296 220.535 357.248 219.048 357.949C217.562 358.65 215.729 359 213.551 359H201.122ZM207.273 353.972H212.287C214.001 353.972 215.251 353.645 216.037 352.991C216.823 352.329 217.216 351.448 217.216 350.349C217.216 349.545 217.022 348.834 216.634 348.219C216.245 347.603 215.691 347.12 214.972 346.77C214.261 346.42 213.414 346.244 212.429 346.244H207.273V353.972ZM207.273 342.082H211.832C212.675 342.082 213.423 341.936 214.077 341.642C214.74 341.339 215.26 340.913 215.639 340.364C216.027 339.814 216.222 339.156 216.222 338.389C216.222 337.338 215.848 336.491 215.099 335.847C214.361 335.203 213.31 334.881 211.946 334.881H207.273V342.082ZM237.312 359.426C235.105 359.426 233.197 358.957 231.587 358.02C229.987 357.073 228.751 355.757 227.88 354.071C227.009 352.376 226.573 350.411 226.573 348.176C226.573 345.922 227.009 343.953 227.88 342.267C228.751 340.572 229.987 339.256 231.587 338.318C233.197 337.371 235.105 336.898 237.312 336.898C239.518 336.898 241.422 337.371 243.022 338.318C244.632 339.256 245.872 340.572 246.744 342.267C247.615 343.953 248.05 345.922 248.05 348.176C248.05 350.411 247.615 352.376 246.744 354.071C245.872 355.757 244.632 357.073 243.022 358.02C241.422 358.957 239.518 359.426 237.312 359.426ZM237.34 354.739C238.344 354.739 239.182 354.455 239.854 353.886C240.527 353.309 241.033 352.523 241.374 351.528C241.725 350.534 241.9 349.402 241.9 348.134C241.9 346.865 241.725 345.733 241.374 344.739C241.033 343.744 240.527 342.958 239.854 342.381C239.182 341.803 238.344 341.514 237.34 341.514C236.327 341.514 235.475 341.803 234.783 342.381C234.102 342.958 233.585 343.744 233.235 344.739C232.894 345.733 232.724 346.865 232.724 348.134C232.724 349.402 232.894 350.534 233.235 351.528C233.585 352.523 234.102 353.309 234.783 353.886C235.475 354.455 236.327 354.739 237.34 354.739ZM261.843 359.426C259.637 359.426 257.728 358.957 256.119 358.02C254.518 357.073 253.282 355.757 252.411 354.071C251.54 352.376 251.104 350.411 251.104 348.176C251.104 345.922 251.54 343.953 252.411 342.267C253.282 340.572 254.518 339.256 256.119 338.318C257.728 337.371 259.637 336.898 261.843 336.898C264.049 336.898 265.953 337.371 267.553 338.318C269.163 339.256 270.404 340.572 271.275 342.267C272.146 343.953 272.582 345.922 272.582 348.176C272.582 350.411 272.146 352.376 271.275 354.071C270.404 355.757 269.163 357.073 267.553 358.02C265.953 358.957 264.049 359.426 261.843 359.426ZM261.871 354.739C262.875 354.739 263.713 354.455 264.386 353.886C265.058 353.309 265.565 352.523 265.906 351.528C266.256 350.534 266.431 349.402 266.431 348.134C266.431 346.865 266.256 345.733 265.906 344.739C265.565 343.744 265.058 342.958 264.386 342.381C263.713 341.803 262.875 341.514 261.871 341.514C260.858 341.514 260.006 341.803 259.315 342.381C258.633 342.958 258.117 343.744 257.766 344.739C257.425 345.733 257.255 346.865 257.255 348.134C257.255 349.402 257.425 350.534 257.766 351.528C258.117 352.523 258.633 353.309 259.315 353.886C260.006 354.455 260.858 354.739 261.871 354.739ZM288.121 337.182V341.727H274.982V337.182H288.121ZM277.965 331.955H284.016V352.295C284.016 352.854 284.102 353.29 284.272 353.602C284.442 353.905 284.679 354.118 284.982 354.241C285.295 354.365 285.655 354.426 286.062 354.426C286.346 354.426 286.63 354.402 286.914 354.355C287.198 354.298 287.416 354.256 287.567 354.227L288.519 358.73C288.216 358.825 287.79 358.934 287.241 359.057C286.692 359.189 286.024 359.27 285.238 359.298C283.78 359.355 282.501 359.161 281.403 358.716C280.314 358.271 279.466 357.58 278.86 356.642C278.254 355.705 277.956 354.521 277.965 353.091V331.955Z" fill="#8BC34A"/>
<g clip-path="url(#clip0_1_39)">
<path d="M298.896 173.34C299.324 147.045 293.372 115.777 280.971 79.0901L271.249 50.3209L258.042 77.677C257.335 79.1395 256.529 80.5712 255.686 81.9844C233.991 63.4466 205.841 52.1722 175 52.1722C106.51 52.1722 50.9921 107.427 50.9921 175.592C50.9921 243.757 106.51 299.013 175 299.013C243.49 299.013 299.008 243.757 299.008 175.592C299.008 174.833 298.909 174.099 298.896 173.34Z" fill="#8BC34A"/>
<path d="M270.393 228.404C251.029 254.952 216.753 256.377 184.493 255.816H142.448H130.432C157.887 245.985 174.225 243.646 190.91 234.834C222.334 218.388 253.398 182.405 259.865 144.972C247.898 180.986 211.632 211.927 178.584 224.51C155.94 233.106 115.042 241.449 115.042 241.449L113.387 240.555C85.5469 226.614 84.7036 164.571 135.317 144.54C157.478 135.759 178.677 140.584 202.617 134.709C228.175 128.464 257.738 108.742 269.767 83.0273C283.234 124.169 299.442 188.589 270.393 228.404ZM123.338 264.733C121.59 266.893 118.917 268.158 116.127 268.158C111.024 268.158 106.858 263.98 106.858 258.901C106.858 253.822 111.055 249.645 116.127 249.645C118.242 249.645 120.325 250.373 121.962 251.718C125.93 254.921 126.55 260.783 123.338 264.733Z" fill="white"/>
</g>
<path d="M359.247 359H348.935V329.909H359.332C362.259 329.909 364.777 330.491 366.889 331.656C369.001 332.812 370.625 334.473 371.761 336.642C372.907 338.811 373.48 341.405 373.48 344.426C373.48 347.456 372.907 350.061 371.761 352.239C370.625 354.417 368.991 356.088 366.861 357.253C364.74 358.418 362.202 359 359.247 359ZM355.085 353.73H358.991C360.81 353.73 362.339 353.408 363.58 352.764C364.83 352.111 365.767 351.102 366.392 349.739C367.027 348.366 367.344 346.595 367.344 344.426C367.344 342.277 367.027 340.52 366.392 339.156C365.767 337.793 364.834 336.789 363.594 336.145C362.353 335.501 360.824 335.179 359.006 335.179H355.085V353.73ZM381.658 367.182C380.891 367.182 380.172 367.12 379.499 366.997C378.836 366.884 378.287 366.737 377.852 366.557L379.215 362.04C379.925 362.258 380.565 362.376 381.133 362.395C381.71 362.414 382.208 362.281 382.624 361.997C383.05 361.713 383.396 361.23 383.661 360.548L384.016 359.625L376.19 337.182H382.553L387.07 353.205H387.298L391.857 337.182H398.263L389.783 361.358C389.376 362.532 388.822 363.555 388.121 364.426C387.43 365.307 386.554 365.984 385.494 366.457C384.433 366.94 383.155 367.182 381.658 367.182ZM407.411 346.386V359H401.36V337.182H407.127V341.031H407.383C407.866 339.762 408.675 338.759 409.812 338.02C410.948 337.272 412.326 336.898 413.945 336.898C415.46 336.898 416.781 337.229 417.908 337.892C419.035 338.555 419.911 339.502 420.536 340.733C421.161 341.955 421.474 343.413 421.474 345.108V359H415.423V346.188C415.432 344.852 415.091 343.811 414.4 343.062C413.709 342.305 412.757 341.926 411.545 341.926C410.73 341.926 410.011 342.101 409.386 342.452C408.77 342.802 408.287 343.313 407.937 343.986C407.596 344.649 407.421 345.449 407.411 346.386ZM432.464 359.412C431.072 359.412 429.832 359.17 428.743 358.688C427.654 358.195 426.792 357.471 426.158 356.514C425.533 355.548 425.22 354.346 425.22 352.906C425.22 351.694 425.443 350.676 425.888 349.852C426.333 349.028 426.939 348.366 427.706 347.864C428.473 347.362 429.344 346.983 430.32 346.727C431.304 346.472 432.337 346.292 433.416 346.188C434.685 346.055 435.708 345.932 436.484 345.818C437.261 345.695 437.824 345.515 438.175 345.278C438.525 345.042 438.7 344.691 438.7 344.227V344.142C438.7 343.242 438.416 342.546 437.848 342.054C437.289 341.562 436.494 341.315 435.462 341.315C434.373 341.315 433.506 341.557 432.862 342.04C432.218 342.513 431.792 343.11 431.584 343.83L425.987 343.375C426.271 342.049 426.83 340.903 427.663 339.938C428.497 338.962 429.571 338.214 430.888 337.693C432.214 337.163 433.748 336.898 435.49 336.898C436.702 336.898 437.862 337.04 438.97 337.324C440.088 337.608 441.077 338.048 441.939 338.645C442.81 339.241 443.497 340.009 443.999 340.946C444.5 341.874 444.751 342.987 444.751 344.284V359H439.013V355.974H438.842C438.492 356.656 438.023 357.258 437.436 357.778C436.849 358.29 436.143 358.692 435.32 358.986C434.496 359.27 433.544 359.412 432.464 359.412ZM434.197 355.236C435.088 355.236 435.874 355.061 436.555 354.71C437.237 354.35 437.772 353.867 438.161 353.261C438.549 352.655 438.743 351.969 438.743 351.202V348.886C438.554 349.009 438.293 349.123 437.962 349.227C437.64 349.322 437.275 349.412 436.868 349.497C436.461 349.573 436.054 349.644 435.646 349.71C435.239 349.767 434.87 349.819 434.538 349.866C433.828 349.971 433.208 350.136 432.678 350.364C432.147 350.591 431.735 350.899 431.442 351.287C431.148 351.666 431.001 352.139 431.001 352.707C431.001 353.531 431.3 354.161 431.896 354.597C432.502 355.023 433.269 355.236 434.197 355.236ZM449.446 359V337.182H455.213V341.031H455.469C455.923 339.753 456.681 338.744 457.741 338.006C458.802 337.267 460.071 336.898 461.548 336.898C463.045 336.898 464.318 337.272 465.369 338.02C466.42 338.759 467.121 339.762 467.472 341.031H467.699C468.144 339.781 468.949 338.782 470.114 338.034C471.288 337.277 472.675 336.898 474.276 336.898C476.312 336.898 477.964 337.546 479.233 338.844C480.511 340.132 481.151 341.959 481.151 344.327V359H475.114V345.52C475.114 344.308 474.792 343.399 474.148 342.793C473.504 342.187 472.699 341.884 471.733 341.884C470.634 341.884 469.777 342.234 469.162 342.935C468.546 343.626 468.239 344.54 468.239 345.676V359H462.372V345.392C462.372 344.322 462.064 343.47 461.449 342.835C460.843 342.201 460.043 341.884 459.048 341.884C458.376 341.884 457.77 342.054 457.23 342.395C456.7 342.726 456.278 343.195 455.966 343.801C455.653 344.398 455.497 345.098 455.497 345.903V359H449.446ZM495.788 359.426C493.582 359.426 491.674 358.957 490.064 358.02C488.464 357.073 487.228 355.757 486.357 354.071C485.485 352.376 485.05 350.411 485.05 348.176C485.05 345.922 485.485 343.953 486.357 342.267C487.228 340.572 488.464 339.256 490.064 338.318C491.674 337.371 493.582 336.898 495.788 336.898C497.995 336.898 499.898 337.371 501.499 338.318C503.108 339.256 504.349 340.572 505.22 342.267C506.091 343.953 506.527 345.922 506.527 348.176C506.527 350.411 506.091 352.376 505.22 354.071C504.349 355.757 503.108 357.073 501.499 358.02C499.898 358.957 497.995 359.426 495.788 359.426ZM495.817 354.739C496.821 354.739 497.659 354.455 498.331 353.886C499.003 353.309 499.51 352.523 499.851 351.528C500.201 350.534 500.376 349.402 500.376 348.134C500.376 346.865 500.201 345.733 499.851 344.739C499.51 343.744 499.003 342.958 498.331 342.381C497.659 341.803 496.821 341.514 495.817 341.514C494.804 341.514 493.951 341.803 493.26 342.381C492.578 342.958 492.062 343.744 491.712 344.739C491.371 345.733 491.2 346.865 491.2 348.134C491.2 349.402 491.371 350.534 491.712 351.528C492.062 352.523 492.578 353.309 493.26 353.886C493.951 354.455 494.804 354.739 495.817 354.739ZM520.888 359H510.575V329.909H520.973C523.899 329.909 526.418 330.491 528.53 331.656C530.642 332.812 532.266 334.473 533.402 336.642C534.548 338.811 535.121 341.405 535.121 344.426C535.121 347.456 534.548 350.061 533.402 352.239C532.266 354.417 530.632 356.088 528.501 357.253C526.38 358.418 523.842 359 520.888 359ZM516.726 353.73H520.632C522.45 353.73 523.98 353.408 525.22 352.764C526.47 352.111 527.408 351.102 528.033 349.739C528.667 348.366 528.984 346.595 528.984 344.426C528.984 342.277 528.667 340.52 528.033 339.156C527.408 337.793 526.475 336.789 525.234 336.145C523.994 335.501 522.464 335.179 520.646 335.179H516.726V353.73ZM539.677 359V329.909H551.325C553.465 329.909 555.25 330.226 556.68 330.861C558.11 331.495 559.184 332.376 559.904 333.503C560.624 334.62 560.984 335.908 560.984 337.366C560.984 338.503 560.756 339.502 560.302 340.364C559.847 341.216 559.222 341.917 558.427 342.466C557.641 343.006 556.741 343.389 555.728 343.616V343.901C556.836 343.948 557.873 344.26 558.839 344.838C559.814 345.416 560.605 346.225 561.211 347.267C561.817 348.299 562.12 349.53 562.12 350.96C562.12 352.504 561.737 353.882 560.969 355.094C560.212 356.296 559.09 357.248 557.603 357.949C556.116 358.65 554.284 359 552.106 359H539.677ZM545.827 353.972H550.842C552.556 353.972 553.806 353.645 554.592 352.991C555.378 352.329 555.771 351.448 555.771 350.349C555.771 349.545 555.576 348.834 555.188 348.219C554.8 347.603 554.246 347.12 553.526 346.77C552.816 346.42 551.969 346.244 550.984 346.244H545.827V353.972ZM545.827 342.082H550.387C551.23 342.082 551.978 341.936 552.631 341.642C553.294 341.339 553.815 340.913 554.194 340.364C554.582 339.814 554.776 339.156 554.776 338.389C554.776 337.338 554.402 336.491 553.654 335.847C552.915 335.203 551.864 334.881 550.501 334.881H545.827V342.082Z" fill="#435ADC"/>
<g clip-path="url(#clip1_1_39)">
<path d="M580 50H330V300H580V50Z" fill="url(#paint0_linear_1_39)"/>
<path d="M497.5 184.933L475.467 206.933C479.431 205.827 483.255 204.273 486.867 202.3C487.922 202.954 488.823 203.83 489.507 204.865C490.192 205.901 490.644 207.073 490.833 208.3C490.833 214.4 477.9 221.033 458.7 223.733C452.777 224.534 446.81 224.957 440.833 225H437.5C410.567 224.367 390.833 215.867 390.833 208.333C391.022 207.106 391.475 205.934 392.159 204.899C392.844 203.863 393.745 202.988 394.8 202.333C405.267 208.167 422.233 211.633 440.833 211.633H441.2L443.067 204.967C442.333 204.967 441.6 204.967 440.833 204.967C422.5 204.967 405.5 201.333 396.467 195.6C392.867 193.233 390.867 190.667 390.833 188.433V173C401.033 180.8 421.367 184.867 440.833 184.867C443.467 184.867 446.1 184.867 448.667 184.633L450.567 177.967C447.233 178.2 444.133 178.3 440.833 178.3C412.233 178.3 390.833 169.533 390.833 161.633C391.022 160.406 391.475 159.234 392.159 158.199C392.844 157.163 393.745 156.288 394.8 155.633C404 160.8 418.133 164.033 434.167 164.767L434.333 158.1C418.567 157.333 404.333 153.933 396.467 148.9C392.9 146.6 390.9 144 390.833 141.733V126.333C401.033 134.133 421.367 138.2 440.833 138.2H441.567L445.1 131.533H440.833C412.233 131.533 390.833 122.767 390.833 114.867C390.833 106.967 412.233 98.2 440.833 98.2C450.466 98.1592 460.068 99.2783 469.433 101.533H487.733C477.733 95.4333 460.467 91.5333 440.833 91.5333C413.367 91.5333 384.167 99.6667 384.167 114.867V141.7C384.267 143.601 384.767 145.459 385.634 147.154C386.502 148.848 387.717 150.34 389.2 151.533C387.698 152.746 386.472 154.265 385.604 155.99C384.736 157.714 384.246 159.604 384.167 161.533V188.2C384.244 190.129 384.733 192.02 385.601 193.745C386.469 195.47 387.696 196.989 389.2 198.2C387.698 199.413 386.472 200.932 385.604 202.657C384.736 204.381 384.246 206.271 384.167 208.2V234.867C384.147 235.1 384.147 235.334 384.167 235.567C385.067 250.2 413.733 258.067 440.833 258.067C467.933 258.067 496.6 250.2 497.5 235.5C497.533 235.268 497.533 235.032 497.5 234.8V208.133C497.436 206.201 496.953 204.306 496.084 202.579C495.215 200.853 493.98 199.336 492.467 198.133C493.971 196.922 495.198 195.403 496.066 193.678C496.934 191.953 497.423 190.063 497.5 188.133V184.933ZM490.833 234.933C490.833 242.8 469.433 251.6 440.833 251.6C412.233 251.6 390.833 242.9 390.833 234.933V219.6C401.033 227.333 421.367 231.4 440.833 231.4C460.3 231.4 480.633 227.333 490.833 219.6V234.933Z" fill="white"/>
<path d="M400.833 145.9C403.135 145.9 405 144.035 405 141.733C405 139.432 403.135 137.567 400.833 137.567C398.532 137.567 396.667 139.432 396.667 141.733C396.667 144.035 398.532 145.9 400.833 145.9Z" fill="white"/>
<path d="M400.833 192.567C403.135 192.567 405 190.701 405 188.4C405 186.099 403.135 184.233 400.833 184.233C398.532 184.233 396.667 186.099 396.667 188.4C396.667 190.701 398.532 192.567 400.833 192.567Z" fill="white"/>
<path d="M400.833 239.233C403.135 239.233 405 237.368 405 235.067C405 232.765 403.135 230.9 400.833 230.9C398.532 230.9 396.667 232.765 396.667 235.067C396.667 237.368 398.532 239.233 400.833 239.233Z" fill="white"/>
<path d="M449.167 221.6C448.58 221.594 448.005 221.433 447.5 221.133C446.851 220.76 446.347 220.178 446.068 219.483C445.79 218.787 445.754 218.018 445.967 217.3L464.7 154.933H445.833C445.251 154.941 444.677 154.796 444.168 154.512C443.66 154.229 443.234 153.817 442.934 153.318C442.634 152.819 442.47 152.25 442.458 151.668C442.446 151.086 442.587 150.511 442.867 150L462.867 110C463.144 109.45 463.567 108.988 464.091 108.664C464.615 108.341 465.218 108.169 465.833 108.167H509.167C509.707 108.14 510.245 108.245 510.736 108.472C511.226 108.7 511.654 109.044 511.982 109.473C512.31 109.903 512.528 110.406 512.619 110.939C512.709 111.472 512.668 112.019 512.5 112.533L503.967 138.167H522.667C523.318 138.169 523.954 138.362 524.497 138.723C525.04 139.083 525.465 139.594 525.721 140.193C525.976 140.793 526.05 141.454 525.934 142.095C525.818 142.736 525.516 143.328 525.067 143.8L451.733 220.467C451.414 220.831 451.018 221.121 450.575 221.317C450.132 221.512 449.651 221.609 449.167 221.6ZM451.233 148.267H469.167C469.684 148.267 470.195 148.387 470.657 148.619C471.12 148.85 471.523 149.186 471.833 149.6C472.144 150.014 472.354 150.495 472.446 151.004C472.539 151.513 472.512 152.037 472.367 152.533L456.333 205.867L514.7 144.867H499.167C498.623 144.896 498.08 144.791 497.586 144.561C497.092 144.332 496.662 143.985 496.333 143.551C496.004 143.117 495.786 142.609 495.699 142.071C495.612 141.533 495.658 140.982 495.833 140.467L504.367 114.867H467.7L451.233 148.267Z" fill="white"/>
</g>
<path d="M718.958 359H708.646V329.909H719.043C721.969 329.909 724.488 330.491 726.6 331.656C728.712 332.812 730.336 334.473 731.472 336.642C732.618 338.811 733.191 341.405 733.191 344.426C733.191 347.456 732.618 350.061 731.472 352.239C730.336 354.417 728.702 356.088 726.572 357.253C724.451 358.418 721.913 359 718.958 359ZM714.796 353.73H718.702C720.521 353.73 722.05 353.408 723.29 352.764C724.54 352.111 725.478 351.102 726.103 349.739C726.737 348.366 727.055 346.595 727.055 344.426C727.055 342.277 726.737 340.52 726.103 339.156C725.478 337.793 724.545 336.789 723.305 336.145C722.064 335.501 720.535 335.179 718.717 335.179H714.796V353.73ZM747.491 359.426C745.285 359.426 743.377 358.957 741.767 358.02C740.167 357.073 738.931 355.757 738.06 354.071C737.188 352.376 736.753 350.411 736.753 348.176C736.753 345.922 737.188 343.953 738.06 342.267C738.931 340.572 740.167 339.256 741.767 338.318C743.377 337.371 745.285 336.898 747.491 336.898C749.698 336.898 751.601 337.371 753.202 338.318C754.812 339.256 756.052 340.572 756.923 342.267C757.795 343.953 758.23 345.922 758.23 348.176C758.23 350.411 757.795 352.376 756.923 354.071C756.052 355.757 754.812 357.073 753.202 358.02C751.601 358.957 749.698 359.426 747.491 359.426ZM747.52 354.739C748.524 354.739 749.362 354.455 750.034 353.886C750.706 353.309 751.213 352.523 751.554 351.528C751.904 350.534 752.08 349.402 752.08 348.134C752.08 346.865 751.904 345.733 751.554 344.739C751.213 343.744 750.706 342.958 750.034 342.381C749.362 341.803 748.524 341.514 747.52 341.514C746.507 341.514 745.654 341.803 744.963 342.381C744.281 342.958 743.765 343.744 743.415 344.739C743.074 345.733 742.903 346.865 742.903 348.134C742.903 349.402 743.074 350.534 743.415 351.528C743.765 352.523 744.281 353.309 744.963 353.886C745.654 354.455 746.507 354.739 747.52 354.739ZM772.023 359.426C769.788 359.426 767.866 358.953 766.256 358.006C764.655 357.049 763.424 355.723 762.562 354.028C761.71 352.333 761.284 350.383 761.284 348.176C761.284 345.941 761.715 343.981 762.577 342.295C763.448 340.6 764.684 339.279 766.284 338.332C767.884 337.376 769.788 336.898 771.994 336.898C773.898 336.898 775.564 337.243 776.994 337.935C778.424 338.626 779.556 339.597 780.389 340.847C781.223 342.097 781.682 343.564 781.767 345.25H776.057C775.896 344.161 775.47 343.285 774.778 342.622C774.097 341.95 773.202 341.614 772.094 341.614C771.156 341.614 770.337 341.869 769.636 342.381C768.945 342.883 768.405 343.616 768.017 344.582C767.629 345.548 767.435 346.718 767.435 348.091C767.435 349.483 767.624 350.667 768.003 351.642C768.391 352.617 768.936 353.361 769.636 353.872C770.337 354.384 771.156 354.639 772.094 354.639C772.785 354.639 773.405 354.497 773.955 354.213C774.513 353.929 774.973 353.517 775.332 352.977C775.702 352.428 775.943 351.77 776.057 351.003H781.767C781.672 352.67 781.218 354.137 780.403 355.406C779.598 356.666 778.486 357.651 777.065 358.361C775.645 359.071 773.964 359.426 772.023 359.426ZM791.124 352.722L791.138 345.463H792.019L799.008 337.182H805.954L796.565 348.148H795.13L791.124 352.722ZM785.641 359V329.909H791.692V359H785.641ZM799.278 359L792.857 349.497L796.891 345.222L806.366 359H799.278ZM817.967 359.426C815.723 359.426 813.791 358.972 812.172 358.062C810.562 357.144 809.321 355.847 808.45 354.17C807.579 352.485 807.143 350.491 807.143 348.19C807.143 345.946 807.579 343.976 808.45 342.281C809.321 340.586 810.548 339.265 812.129 338.318C813.72 337.371 815.586 336.898 817.726 336.898C819.165 336.898 820.505 337.13 821.746 337.594C822.996 338.048 824.085 338.735 825.013 339.653C825.95 340.572 826.679 341.727 827.2 343.119C827.721 344.502 827.982 346.121 827.982 347.977V349.639H809.558V345.889H822.286C822.286 345.018 822.096 344.246 821.717 343.574C821.339 342.902 820.813 342.376 820.141 341.997C819.478 341.609 818.706 341.415 817.825 341.415C816.907 341.415 816.092 341.628 815.382 342.054C814.681 342.471 814.132 343.034 813.734 343.744C813.337 344.445 813.133 345.226 813.124 346.088V349.653C813.124 350.733 813.322 351.666 813.72 352.452C814.127 353.238 814.7 353.844 815.439 354.27C816.178 354.696 817.054 354.909 818.067 354.909C818.739 354.909 819.355 354.814 819.913 354.625C820.472 354.436 820.95 354.152 821.348 353.773C821.746 353.394 822.049 352.93 822.257 352.381L827.854 352.75C827.57 354.095 826.987 355.269 826.107 356.273C825.235 357.267 824.108 358.044 822.726 358.602C821.353 359.152 819.767 359.426 817.967 359.426ZM831.93 359V337.182H837.797V340.989H838.024C838.422 339.634 839.089 338.612 840.027 337.92C840.964 337.22 842.044 336.869 843.266 336.869C843.569 336.869 843.895 336.888 844.246 336.926C844.596 336.964 844.904 337.016 845.169 337.082V342.452C844.885 342.366 844.492 342.291 843.99 342.224C843.488 342.158 843.029 342.125 842.612 342.125C841.722 342.125 840.927 342.319 840.226 342.707C839.535 343.086 838.985 343.616 838.578 344.298C838.18 344.98 837.982 345.766 837.982 346.656V359H831.93Z" fill="#03A9F4"/>
<path d="M914.14 139.172C917.253 125.358 913.408 109.076 894.236 91.4013C863.073 119.61 871.983 148.941 882.293 163.057C882.293 163.057 880.971 171.019 850.446 171.019C819.92 171.019 611.592 171.019 611.592 171.019C611.592 171.019 596.998 298.408 738.981 298.408C863.129 298.408 898.002 202.842 904.809 178.376C907.627 178.758 910.788 179.005 914.14 178.981C931.234 178.846 953.392 169.658 961.911 135.318C939.315 127.492 924.801 131.035 914.14 139.172Z" fill="#03A9F4"/>
<path d="M612.906 202.866C618.758 240.597 643.304 298.408 738.981 298.408C835.995 298.408 878.495 240.048 895.685 202.866H612.906Z" fill="#0288D1"/>
<path d="M753.408 297.914C746.083 295.35 713.026 289.236 707.134 242.675C673.623 257.508 643.933 253.623 630.868 250.701C648.081 276.409 679.992 298.408 738.981 298.408C743.941 298.408 748.726 298.217 753.408 297.914Z" fill="#81D4FA"/>
<path d="M738.981 218.79C734.758 218.79 730.707 220.467 727.721 223.454C724.735 226.44 723.057 230.49 723.057 234.713C723.057 238.937 724.735 242.987 727.721 245.973C730.707 248.959 734.758 250.637 738.981 250.637C743.204 250.637 747.254 248.959 750.241 245.973C753.227 242.987 754.904 238.937 754.904 234.713C754.904 230.49 753.227 226.44 750.241 223.454C747.254 220.467 743.204 218.79 738.981 218.79Z" fill="white"/>
<path d="M714.411 247.428C716.194 251.449 714.57 256.68 710.35 257.922C684.068 265.669 661.417 266.696 644.291 266.696C639.164 261.768 634.785 256.513 631.107 251.067C651.688 251.067 684.53 250.111 703.909 243.376C708.065 241.927 712.627 243.392 714.411 247.428ZM611.592 194.904C611.592 194.904 626.521 195.9 635.478 186.943C650.406 200.382 682.771 195.605 691.21 186.943C699.674 200.382 746.449 197.89 754.904 186.943C764.857 198.392 807.651 200.876 818.599 186.943C822.412 198.575 872.89 201.863 882.293 186.943C890.74 195.605 922.603 202.373 940.502 186.943C944.992 196.401 961.911 194.904 961.911 194.904V202.866H611.592M731.019 234.713C731.019 239.108 734.586 242.675 738.981 242.675C743.376 242.675 746.943 239.108 746.943 234.713C746.943 230.318 743.376 226.752 738.981 226.752C734.586 226.752 731.019 230.318 731.019 234.713Z" fill="#37474F"/>
<path d="M683.248 171.019H643.439V131.21H683.248V171.019ZM762.866 131.21H723.057V171.019H762.866V131.21ZM842.484 131.21H802.675V171.019H842.484V131.21ZM723.057 91.4013H683.248V131.21H723.057V91.4013ZM802.675 91.4013H762.866V131.21H802.675V91.4013Z" fill="#01579B"/>
<path d="M723.057 171.019H683.248V131.21H723.057V171.019ZM802.675 131.21H762.866V171.019H802.675V131.21ZM802.675 51.5923H762.866V91.4013H802.675V51.5923ZM762.866 91.4013H723.057V131.21H762.866V91.4013Z" fill="#0288D1"/>
<path d="M1009.52 334.98V329.909H1033.41V334.98H1024.5V359H1018.42V334.98H1009.52ZM1044.01 359.426C1041.77 359.426 1039.83 358.972 1038.21 358.062C1036.6 357.144 1035.36 355.847 1034.49 354.17C1033.62 352.485 1033.19 350.491 1033.19 348.19C1033.19 345.946 1033.62 343.976 1034.49 342.281C1035.36 340.586 1036.59 339.265 1038.17 338.318C1039.76 337.371 1041.63 336.898 1043.77 336.898C1045.21 336.898 1046.55 337.13 1047.79 337.594C1049.04 338.048 1050.13 338.735 1051.06 339.653C1051.99 340.572 1052.72 341.727 1053.24 343.119C1053.76 344.502 1054.02 346.121 1054.02 347.977V349.639H1035.6V345.889H1048.33C1048.33 345.018 1048.14 344.246 1047.76 343.574C1047.38 342.902 1046.86 342.376 1046.18 341.997C1045.52 341.609 1044.75 341.415 1043.87 341.415C1042.95 341.415 1042.14 341.628 1041.43 342.054C1040.72 342.471 1040.18 343.034 1039.78 343.744C1039.38 344.445 1039.18 345.226 1039.17 346.088V349.653C1039.17 350.733 1039.37 351.666 1039.76 352.452C1040.17 353.238 1040.74 353.844 1041.48 354.27C1042.22 354.696 1043.1 354.909 1044.11 354.909C1044.78 354.909 1045.4 354.814 1045.96 354.625C1046.52 354.436 1046.99 354.152 1047.39 353.773C1047.79 353.394 1048.09 352.93 1048.3 352.381L1053.9 352.75C1053.61 354.095 1053.03 355.269 1052.15 356.273C1051.28 357.267 1050.15 358.044 1048.77 358.602C1047.4 359.152 1045.81 359.426 1044.01 359.426ZM1057.97 359V337.182H1063.84V340.989H1064.07C1064.46 339.634 1065.13 338.612 1066.07 337.92C1067.01 337.22 1068.09 336.869 1069.31 336.869C1069.61 336.869 1069.94 336.888 1070.29 336.926C1070.64 336.964 1070.95 337.016 1071.21 337.082V342.452C1070.93 342.366 1070.53 342.291 1070.03 342.224C1069.53 342.158 1069.07 342.125 1068.66 342.125C1067.77 342.125 1066.97 342.319 1066.27 342.707C1065.58 343.086 1065.03 343.616 1064.62 344.298C1064.22 344.98 1064.02 345.766 1064.02 346.656V359H1057.97ZM1074.34 359V337.182H1080.21V340.989H1080.43C1080.83 339.634 1081.5 338.612 1082.44 337.92C1083.37 337.22 1084.45 336.869 1085.68 336.869C1085.98 336.869 1086.31 336.888 1086.66 336.926C1087.01 336.964 1087.31 337.016 1087.58 337.082V342.452C1087.3 342.366 1086.9 342.291 1086.4 342.224C1085.9 342.158 1085.44 342.125 1085.02 342.125C1084.13 342.125 1083.34 342.319 1082.64 342.707C1081.94 343.086 1081.4 343.616 1080.99 344.298C1080.59 344.98 1080.39 345.766 1080.39 346.656V359H1074.34ZM1096.3 359.412C1094.91 359.412 1093.67 359.17 1092.58 358.688C1091.49 358.195 1090.63 357.471 1090 356.514C1089.37 355.548 1089.06 354.346 1089.06 352.906C1089.06 351.694 1089.28 350.676 1089.73 349.852C1090.17 349.028 1090.78 348.366 1091.55 347.864C1092.31 347.362 1093.18 346.983 1094.16 346.727C1095.14 346.472 1096.18 346.292 1097.26 346.188C1098.52 346.055 1099.55 345.932 1100.32 345.818C1101.1 345.695 1101.66 345.515 1102.01 345.278C1102.36 345.042 1102.54 344.691 1102.54 344.227V344.142C1102.54 343.242 1102.26 342.546 1101.69 342.054C1101.13 341.562 1100.33 341.315 1099.3 341.315C1098.21 341.315 1097.35 341.557 1096.7 342.04C1096.06 342.513 1095.63 343.11 1095.42 343.83L1089.83 343.375C1090.11 342.049 1090.67 340.903 1091.5 339.938C1092.34 338.962 1093.41 338.214 1094.73 337.693C1096.05 337.163 1097.59 336.898 1099.33 336.898C1100.54 336.898 1101.7 337.04 1102.81 337.324C1103.93 337.608 1104.92 338.048 1105.78 338.645C1106.65 339.241 1107.34 340.009 1107.84 340.946C1108.34 341.874 1108.59 342.987 1108.59 344.284V359H1102.85V355.974H1102.68C1102.33 356.656 1101.86 357.258 1101.28 357.778C1100.69 358.29 1099.98 358.692 1099.16 358.986C1098.34 359.27 1097.38 359.412 1096.3 359.412ZM1098.04 355.236C1098.93 355.236 1099.71 355.061 1100.4 354.71C1101.08 354.35 1101.61 353.867 1102 353.261C1102.39 352.655 1102.58 351.969 1102.58 351.202V348.886C1102.39 349.009 1102.13 349.123 1101.8 349.227C1101.48 349.322 1101.11 349.412 1100.71 349.497C1100.3 349.573 1099.89 349.644 1099.49 349.71C1099.08 349.767 1098.71 349.819 1098.38 349.866C1097.67 349.971 1097.05 350.136 1096.52 350.364C1095.99 350.591 1095.58 350.899 1095.28 351.287C1094.99 351.666 1094.84 352.139 1094.84 352.707C1094.84 353.531 1095.14 354.161 1095.74 354.597C1096.34 355.023 1097.11 355.236 1098.04 355.236ZM1125.02 337.182V341.727H1111.55V337.182H1125.02ZM1114.64 359V335.605C1114.64 334.024 1114.94 332.712 1115.56 331.67C1116.18 330.629 1117.04 329.848 1118.12 329.327C1119.19 328.806 1120.42 328.545 1121.79 328.545C1122.72 328.545 1123.57 328.616 1124.34 328.759C1125.11 328.901 1125.69 329.028 1126.07 329.142L1124.99 333.688C1124.75 333.612 1124.46 333.541 1124.11 333.474C1123.77 333.408 1123.42 333.375 1123.06 333.375C1122.17 333.375 1121.55 333.583 1121.2 334C1120.85 334.407 1120.67 334.98 1120.67 335.719V359H1114.64ZM1137.79 359.426C1135.59 359.426 1133.68 358.957 1132.07 358.02C1130.47 357.073 1129.23 355.757 1128.36 354.071C1127.49 352.376 1127.05 350.411 1127.05 348.176C1127.05 345.922 1127.49 343.953 1128.36 342.267C1129.23 340.572 1130.47 339.256 1132.07 338.318C1133.68 337.371 1135.59 336.898 1137.79 336.898C1140 336.898 1141.9 337.371 1143.5 338.318C1145.11 339.256 1146.35 340.572 1147.22 342.267C1148.1 343.953 1148.53 345.922 1148.53 348.176C1148.53 350.411 1148.1 352.376 1147.22 354.071C1146.35 355.757 1145.11 357.073 1143.5 358.02C1141.9 358.957 1140 359.426 1137.79 359.426ZM1137.82 354.739C1138.82 354.739 1139.66 354.455 1140.33 353.886C1141.01 353.309 1141.51 352.523 1141.85 351.528C1142.21 350.534 1142.38 349.402 1142.38 348.134C1142.38 346.865 1142.21 345.733 1141.85 344.739C1141.51 343.744 1141.01 342.958 1140.33 342.381C1139.66 341.803 1138.82 341.514 1137.82 341.514C1136.81 341.514 1135.96 341.803 1135.26 342.381C1134.58 342.958 1134.07 343.744 1133.72 344.739C1133.37 345.733 1133.2 346.865 1133.2 348.134C1133.2 349.402 1133.37 350.534 1133.72 351.528C1134.07 352.523 1134.58 353.309 1135.26 353.886C1135.96 354.455 1136.81 354.739 1137.82 354.739ZM1152.47 359V337.182H1158.33V340.989H1158.56C1158.96 339.634 1159.62 338.612 1160.56 337.92C1161.5 337.22 1162.58 336.869 1163.8 336.869C1164.1 336.869 1164.43 336.888 1164.78 336.926C1165.13 336.964 1165.44 337.016 1165.7 337.082V342.452C1165.42 342.366 1165.03 342.291 1164.53 342.224C1164.02 342.158 1163.56 342.125 1163.15 342.125C1162.26 342.125 1161.46 342.319 1160.76 342.707C1160.07 343.086 1159.52 343.616 1159.11 344.298C1158.72 344.98 1158.52 345.766 1158.52 346.656V359H1152.47ZM1168.83 359V337.182H1174.6V341.031H1174.86C1175.31 339.753 1176.07 338.744 1177.13 338.006C1178.19 337.267 1179.46 336.898 1180.94 336.898C1182.43 336.898 1183.7 337.272 1184.76 338.02C1185.81 338.759 1186.51 339.762 1186.86 341.031H1187.09C1187.53 339.781 1188.34 338.782 1189.5 338.034C1190.67 337.277 1192.06 336.898 1193.66 336.898C1195.7 336.898 1197.35 337.546 1198.62 338.844C1199.9 340.132 1200.54 341.959 1200.54 344.327V359H1194.5V345.52C1194.5 344.308 1194.18 343.399 1193.53 342.793C1192.89 342.187 1192.09 341.884 1191.12 341.884C1190.02 341.884 1189.16 342.234 1188.55 342.935C1187.93 343.626 1187.63 344.54 1187.63 345.676V359H1181.76V345.392C1181.76 344.322 1181.45 343.47 1180.84 342.835C1180.23 342.201 1179.43 341.884 1178.44 341.884C1177.76 341.884 1177.16 342.054 1176.62 342.395C1176.09 342.726 1175.67 343.195 1175.35 343.801C1175.04 344.398 1174.88 345.098 1174.88 345.903V359H1168.83Z" fill="#6042EA"/>
<g clip-path="url(#clip2_1_39)">
<path d="M1060.67 166.667L994 127.778V50L1060.67 88.8889V166.667Z" fill="#6042EA"/>
<path d="M1138.44 211.111L1071.78 172.222V94.4445L1138.44 133.333V211.111Z" fill="#6042EA"/>
<path d="M1149.56 211.111L1216.22 172.222V94.4445L1149.56 133.333V211.111Z" fill="#4040B2"/>
<path d="M1138.44 300L1071.78 261.111V183.333L1138.44 222.222V300Z" fill="#6042EA"/>
</g>
<path d="M1261.9 359V329.909H1268.05V342.736H1268.43L1278.9 329.909H1286.27L1275.48 342.935L1286.4 359H1279.04L1271.07 347.04L1268.05 350.733V359H1261.9ZM1301.98 349.71V337.182H1308.04V359H1302.23V355.037H1302C1301.51 356.315 1300.69 357.343 1299.54 358.119C1298.4 358.896 1297.02 359.284 1295.38 359.284C1293.92 359.284 1292.64 358.953 1291.53 358.29C1290.42 357.627 1289.56 356.685 1288.93 355.463C1288.31 354.241 1288 352.778 1287.99 351.074V337.182H1294.04V349.994C1294.05 351.282 1294.4 352.3 1295.08 353.048C1295.76 353.796 1296.68 354.17 1297.82 354.17C1298.55 354.17 1299.23 354.005 1299.87 353.673C1300.5 353.332 1301.01 352.83 1301.4 352.168C1301.8 351.505 1301.99 350.686 1301.98 349.71ZM1312.99 359V329.909H1319.04V340.847H1319.23C1319.49 340.259 1319.87 339.663 1320.38 339.057C1320.89 338.441 1321.55 337.93 1322.36 337.523C1323.19 337.106 1324.21 336.898 1325.43 336.898C1327.02 336.898 1328.49 337.314 1329.84 338.148C1331.18 338.972 1332.26 340.217 1333.06 341.884C1333.87 343.541 1334.27 345.619 1334.27 348.119C1334.27 350.553 1333.87 352.608 1333.09 354.284C1332.31 355.951 1331.25 357.215 1329.91 358.077C1328.57 358.929 1327.08 359.355 1325.42 359.355C1324.24 359.355 1323.25 359.161 1322.42 358.773C1321.61 358.384 1320.94 357.897 1320.42 357.31C1319.9 356.713 1319.5 356.112 1319.23 355.506H1318.96V359H1312.99ZM1318.91 348.091C1318.91 349.388 1319.09 350.52 1319.45 351.486C1319.81 352.452 1320.33 353.205 1321.01 353.744C1321.7 354.275 1322.53 354.54 1323.5 354.54C1324.49 354.54 1325.32 354.27 1326 353.73C1326.68 353.181 1327.2 352.423 1327.55 351.457C1327.91 350.482 1328.09 349.36 1328.09 348.091C1328.09 346.831 1327.91 345.723 1327.56 344.767C1327.21 343.811 1326.7 343.062 1326.01 342.523C1325.33 341.983 1324.5 341.713 1323.5 341.713C1322.52 341.713 1321.68 341.973 1321 342.494C1320.33 343.015 1319.81 343.754 1319.45 344.71C1319.09 345.667 1318.91 346.794 1318.91 348.091ZM1348.25 359.426C1346 359.426 1344.07 358.972 1342.45 358.062C1340.84 357.144 1339.6 355.847 1338.73 354.17C1337.86 352.485 1337.42 350.491 1337.42 348.19C1337.42 345.946 1337.86 343.976 1338.73 342.281C1339.6 340.586 1340.83 339.265 1342.41 338.318C1344 337.371 1345.87 336.898 1348.01 336.898C1349.45 336.898 1350.79 337.13 1352.03 337.594C1353.28 338.048 1354.37 338.735 1355.29 339.653C1356.23 340.572 1356.96 341.727 1357.48 343.119C1358 344.502 1358.26 346.121 1358.26 347.977V349.639H1339.84V345.889H1352.57C1352.57 345.018 1352.38 344.246 1352 343.574C1351.62 342.902 1351.09 342.376 1350.42 341.997C1349.76 341.609 1348.99 341.415 1348.11 341.415C1347.19 341.415 1346.37 341.628 1345.66 342.054C1344.96 342.471 1344.41 343.034 1344.02 343.744C1343.62 344.445 1343.41 345.226 1343.4 346.088V349.653C1343.4 350.733 1343.6 351.666 1344 352.452C1344.41 353.238 1344.98 353.844 1345.72 354.27C1346.46 354.696 1347.33 354.909 1348.35 354.909C1349.02 354.909 1349.64 354.814 1350.19 354.625C1350.75 354.436 1351.23 354.152 1351.63 353.773C1352.03 353.394 1352.33 352.93 1352.54 352.381L1358.13 352.75C1357.85 354.095 1357.27 355.269 1356.39 356.273C1355.52 357.267 1354.39 358.044 1353.01 358.602C1351.63 359.152 1350.05 359.426 1348.25 359.426ZM1362.21 359V337.182H1368.08V340.989H1368.31C1368.7 339.634 1369.37 338.612 1370.31 337.92C1371.25 337.22 1372.33 336.869 1373.55 336.869C1373.85 336.869 1374.18 336.888 1374.53 336.926C1374.88 336.964 1375.19 337.016 1375.45 337.082V342.452C1375.17 342.366 1374.77 342.291 1374.27 342.224C1373.77 342.158 1373.31 342.125 1372.89 342.125C1372 342.125 1371.21 342.319 1370.51 342.707C1369.82 343.086 1369.27 343.616 1368.86 344.298C1368.46 344.98 1368.26 345.766 1368.26 346.656V359H1362.21ZM1384.63 346.386V359H1378.58V337.182H1384.35V341.031H1384.6C1385.08 339.762 1385.89 338.759 1387.03 338.02C1388.17 337.272 1389.54 336.898 1391.16 336.898C1392.68 336.898 1394 337.229 1395.13 337.892C1396.25 338.555 1397.13 339.502 1397.75 340.733C1398.38 341.955 1398.69 343.413 1398.69 345.108V359H1392.64V346.188C1392.65 344.852 1392.31 343.811 1391.62 343.062C1390.93 342.305 1389.98 341.926 1388.76 341.926C1387.95 341.926 1387.23 342.101 1386.6 342.452C1385.99 342.802 1385.51 343.313 1385.16 343.986C1384.81 344.649 1384.64 345.449 1384.63 346.386ZM1413.4 359.426C1411.16 359.426 1409.23 358.972 1407.61 358.062C1406 357.144 1404.76 355.847 1403.89 354.17C1403.02 352.485 1402.58 350.491 1402.58 348.19C1402.58 345.946 1403.02 343.976 1403.89 342.281C1404.76 340.586 1405.99 339.265 1407.57 338.318C1409.16 337.371 1411.02 336.898 1413.16 336.898C1414.6 336.898 1415.94 337.13 1417.18 337.594C1418.43 338.048 1419.52 338.735 1420.45 339.653C1421.39 340.572 1422.12 341.727 1422.64 343.119C1423.16 344.502 1423.42 346.121 1423.42 347.977V349.639H1405V345.889H1417.72C1417.72 345.018 1417.53 344.246 1417.15 343.574C1416.78 342.902 1416.25 342.376 1415.58 341.997C1414.92 341.609 1414.14 341.415 1413.26 341.415C1412.34 341.415 1411.53 341.628 1410.82 342.054C1410.12 342.471 1409.57 343.034 1409.17 343.744C1408.77 344.445 1408.57 345.226 1408.56 346.088V349.653C1408.56 350.733 1408.76 351.666 1409.16 352.452C1409.56 353.238 1410.14 353.844 1410.88 354.27C1411.62 354.696 1412.49 354.909 1413.5 354.909C1414.18 354.909 1414.79 354.814 1415.35 354.625C1415.91 354.436 1416.39 354.152 1416.79 353.773C1417.18 353.394 1417.49 352.93 1417.69 352.381L1423.29 352.75C1423.01 354.095 1422.42 355.269 1421.54 356.273C1420.67 357.267 1419.55 358.044 1418.16 358.602C1416.79 359.152 1415.2 359.426 1413.4 359.426ZM1438.97 337.182V341.727H1425.83V337.182H1438.97ZM1428.82 331.955H1434.87V352.295C1434.87 352.854 1434.95 353.29 1435.12 353.602C1435.29 353.905 1435.53 354.118 1435.83 354.241C1436.15 354.365 1436.51 354.426 1436.91 354.426C1437.2 354.426 1437.48 354.402 1437.77 354.355C1438.05 354.298 1438.27 354.256 1438.42 354.227L1439.37 358.73C1439.07 358.825 1438.64 358.934 1438.09 359.057C1437.54 359.189 1436.88 359.27 1436.09 359.298C1434.63 359.355 1433.35 359.161 1432.25 358.716C1431.17 358.271 1430.32 357.58 1429.71 356.642C1429.11 355.705 1428.81 354.521 1428.82 353.091V331.955ZM1452.62 359.426C1450.38 359.426 1448.45 358.972 1446.83 358.062C1445.22 357.144 1443.98 355.847 1443.11 354.17C1442.24 352.485 1441.8 350.491 1441.8 348.19C1441.8 345.946 1442.24 343.976 1443.11 342.281C1443.98 340.586 1445.2 339.265 1446.79 338.318C1448.38 337.371 1450.24 336.898 1452.38 336.898C1453.82 336.898 1455.16 337.13 1456.4 337.594C1457.65 338.048 1458.74 338.735 1459.67 339.653C1460.61 340.572 1461.34 341.727 1461.86 343.119C1462.38 344.502 1462.64 346.121 1462.64 347.977V349.639H1444.21V345.889H1456.94C1456.94 345.018 1456.75 344.246 1456.37 343.574C1455.99 342.902 1455.47 342.376 1454.8 341.997C1454.13 341.609 1453.36 341.415 1452.48 341.415C1451.56 341.415 1450.75 341.628 1450.04 342.054C1449.34 342.471 1448.79 343.034 1448.39 343.744C1447.99 344.445 1447.79 345.226 1447.78 346.088V349.653C1447.78 350.733 1447.98 351.666 1448.38 352.452C1448.78 353.238 1449.36 353.844 1450.1 354.27C1450.83 354.696 1451.71 354.909 1452.72 354.909C1453.4 354.909 1454.01 354.814 1454.57 354.625C1455.13 354.436 1455.61 354.152 1456 353.773C1456.4 353.394 1456.71 352.93 1456.91 352.381L1462.51 352.75C1462.23 354.095 1461.64 355.269 1460.76 356.273C1459.89 357.267 1458.76 358.044 1457.38 358.602C1456.01 359.152 1454.42 359.426 1452.62 359.426ZM1484.74 343.403L1479.2 343.744C1479.11 343.271 1478.9 342.845 1478.59 342.466C1478.28 342.078 1477.87 341.77 1477.35 341.543C1476.85 341.306 1476.25 341.188 1475.55 341.188C1474.61 341.188 1473.82 341.386 1473.18 341.784C1472.53 342.172 1472.21 342.693 1472.21 343.347C1472.21 343.867 1472.42 344.308 1472.84 344.668C1473.25 345.027 1473.97 345.316 1474.98 345.534L1478.93 346.33C1481.05 346.765 1482.63 347.466 1483.67 348.432C1484.72 349.398 1485.24 350.667 1485.24 352.239C1485.24 353.669 1484.82 354.923 1483.97 356.003C1483.14 357.082 1481.99 357.925 1480.54 358.531C1479.09 359.128 1477.42 359.426 1475.52 359.426C1472.63 359.426 1470.33 358.825 1468.62 357.622C1466.91 356.41 1465.91 354.762 1465.62 352.679L1471.57 352.366C1471.75 353.247 1472.19 353.92 1472.88 354.384C1473.57 354.838 1474.46 355.065 1475.54 355.065C1476.6 355.065 1477.45 354.862 1478.09 354.455C1478.75 354.038 1479.08 353.503 1479.09 352.849C1479.08 352.3 1478.85 351.85 1478.39 351.5C1477.94 351.14 1477.24 350.866 1476.29 350.676L1472.51 349.923C1470.38 349.497 1468.79 348.759 1467.75 347.707C1466.72 346.656 1466.2 345.316 1466.2 343.688C1466.2 342.286 1466.58 341.079 1467.34 340.065C1468.11 339.052 1469.18 338.271 1470.56 337.722C1471.96 337.172 1473.58 336.898 1475.45 336.898C1478.21 336.898 1480.37 337.48 1481.96 338.645C1483.55 339.81 1484.47 341.396 1484.74 343.403Z" fill="#0277BD"/>
<g clip-path="url(#clip3_1_39)">
<path d="M1385.48 179.317C1386.1 180.116 1386.37 181.268 1386.19 182.335L1384.51 189.701C1384.33 190.854 1383.53 191.744 1382.56 192.274L1375.74 195.47C1374.77 196 1373.53 196 1372.55 195.47L1365.74 192.274C1364.76 191.744 1363.97 190.854 1363.79 189.701L1362.11 182.335C1361.93 181.268 1362.2 180.116 1362.82 179.317L1367.6 173.372C1368.21 172.482 1369.28 171.951 1370.43 171.951H1377.87C1379.02 171.951 1380.08 172.482 1380.7 173.372L1385.48 179.317Z" fill="#0277BD"/>
<path d="M1382.05 125.183L1382.34 127.47C1383.16 133.793 1383.74 140.183 1384.33 146.506C1384.56 149.024 1384.8 151.488 1384.97 154.006C1385.09 155.939 1387.25 156.933 1388.83 155.823C1390.82 154.36 1392.87 152.896 1394.97 151.488C1400.23 147.915 1405.43 144.341 1410.81 140.884L1412.8 139.652C1404.44 132.037 1393.8 126.823 1382.05 125.183ZM1382.05 125.183L1382.34 127.47C1383.16 133.793 1383.74 140.183 1384.33 146.506C1384.56 149.024 1384.8 151.488 1384.97 154.006C1385.09 155.939 1387.25 156.933 1388.83 155.823C1390.82 154.36 1392.87 152.896 1394.97 151.488C1400.23 147.915 1405.43 144.341 1410.81 140.884L1412.8 139.652C1404.44 132.037 1393.8 126.823 1382.05 125.183ZM1382.05 125.183L1382.34 127.47C1383.16 133.793 1383.74 140.183 1384.33 146.506C1384.56 149.024 1384.8 151.488 1384.97 154.006C1385.09 155.939 1387.25 156.933 1388.83 155.823C1390.82 154.36 1392.87 152.896 1394.97 151.488C1400.23 147.915 1405.43 144.341 1410.81 140.884L1412.8 139.652C1404.44 132.037 1393.8 126.823 1382.05 125.183ZM1382.05 125.183L1382.34 127.47C1383.16 133.793 1383.74 140.183 1384.33 146.506C1384.56 149.024 1384.8 151.488 1384.97 154.006C1385.09 155.939 1387.25 156.933 1388.83 155.823C1390.82 154.36 1392.87 152.896 1394.97 151.488C1400.23 147.915 1405.43 144.341 1410.81 140.884L1412.8 139.652C1404.44 132.037 1393.8 126.823 1382.05 125.183ZM1382.05 125.183L1382.34 127.47C1383.16 133.793 1383.74 140.183 1384.33 146.506C1384.56 149.024 1384.8 151.488 1384.97 154.006C1385.09 155.939 1387.25 156.933 1388.83 155.823C1390.82 154.36 1392.87 152.896 1394.97 151.488C1400.23 147.915 1405.43 144.341 1410.81 140.884L1412.8 139.652C1404.44 132.037 1393.8 126.823 1382.05 125.183ZM1423.55 152.652L1421.98 154.354C1417.59 159.043 1413.09 163.549 1408.59 168.061C1405.72 170.988 1402.62 173.799 1399.64 176.671C1403.62 177.665 1407.59 178.72 1411.57 179.89C1417.71 181.646 1423.79 183.348 1429.87 185.335L1432.03 186.037C1432.09 185.098 1432.09 184.104 1432.09 183.11C1432.09 171.927 1428.99 161.5 1423.55 152.652ZM1423.55 152.652L1421.98 154.354C1417.59 159.043 1413.09 163.549 1408.59 168.061C1405.72 170.988 1402.62 173.799 1399.64 176.671C1403.62 177.665 1407.59 178.72 1411.57 179.89C1417.71 181.646 1423.79 183.348 1429.87 185.335L1432.03 186.037C1432.09 185.098 1432.09 184.104 1432.09 183.11C1432.09 171.927 1428.99 161.5 1423.55 152.652ZM1382.05 125.183L1382.34 127.47C1383.16 133.793 1383.74 140.183 1384.33 146.506C1384.56 149.024 1384.8 151.488 1384.97 154.006C1385.09 155.939 1387.25 156.933 1388.83 155.823C1390.82 154.36 1392.87 152.896 1394.97 151.488C1400.23 147.915 1405.43 144.341 1410.81 140.884L1412.8 139.652C1404.44 132.037 1393.8 126.823 1382.05 125.183ZM1382.05 125.183L1382.34 127.47C1383.16 133.793 1383.74 140.183 1384.33 146.506C1384.56 149.024 1384.8 151.488 1384.97 154.006C1385.09 155.939 1387.25 156.933 1388.83 155.823C1390.82 154.36 1392.87 152.896 1394.97 151.488C1400.23 147.915 1405.43 144.341 1410.81 140.884L1412.8 139.652C1404.44 132.037 1393.8 126.823 1382.05 125.183ZM1426.65 202.561C1420.28 202.152 1413.96 201.567 1407.59 200.982C1404.84 200.75 1402.15 200.457 1399.41 200.159C1397.65 199.927 1396.25 201.683 1396.9 203.378C1397.89 206.012 1398.82 208.652 1399.76 211.348C1401.81 217.323 1403.91 223.354 1405.84 229.445L1406.48 231.555C1416.65 224.585 1424.55 214.512 1428.7 202.677L1426.65 202.561ZM1423.55 152.652L1421.98 154.354C1417.59 159.043 1413.09 163.549 1408.59 168.061C1405.72 170.988 1402.62 173.799 1399.64 176.671C1403.62 177.665 1407.59 178.72 1411.57 179.89C1417.71 181.646 1423.79 183.348 1429.87 185.335L1432.03 186.037C1432.09 185.098 1432.09 184.104 1432.09 183.11C1432.09 171.927 1428.99 161.5 1423.55 152.652ZM1423.55 152.652L1421.98 154.354C1417.59 159.043 1413.09 163.549 1408.59 168.061C1405.72 170.988 1402.62 173.799 1399.64 176.671C1403.62 177.665 1407.59 178.72 1411.57 179.89C1417.71 181.646 1423.79 183.348 1429.87 185.335L1432.03 186.037C1432.09 185.098 1432.09 184.104 1432.09 183.11C1432.09 171.927 1428.99 161.5 1423.55 152.652ZM1426.65 202.561C1420.28 202.152 1413.96 201.567 1407.59 200.982C1404.84 200.75 1402.15 200.457 1399.41 200.159C1397.65 199.927 1396.25 201.683 1396.9 203.378C1397.89 206.012 1398.82 208.652 1399.76 211.348C1401.81 217.323 1403.91 223.354 1405.84 229.445L1406.48 231.555C1416.65 224.585 1424.55 214.512 1428.7 202.677L1426.65 202.561ZM1382.05 125.183L1382.34 127.47C1383.16 133.793 1383.74 140.183 1384.33 146.506C1384.56 149.024 1384.8 151.488 1384.97 154.006C1385.09 155.939 1387.25 156.933 1388.83 155.823C1390.82 154.36 1392.87 152.896 1394.97 151.488C1400.23 147.915 1405.43 144.341 1410.81 140.884L1412.8 139.652C1404.44 132.037 1393.8 126.823 1382.05 125.183ZM1382.05 125.183L1382.34 127.47C1383.16 133.793 1383.74 140.183 1384.33 146.506C1384.56 149.024 1384.8 151.488 1384.97 154.006C1385.09 155.939 1387.25 156.933 1388.83 155.823C1390.82 154.36 1392.87 152.896 1394.97 151.488C1400.23 147.915 1405.43 144.341 1410.81 140.884L1412.8 139.652C1404.44 132.037 1393.8 126.823 1382.05 125.183ZM1426.65 202.561C1420.28 202.152 1413.96 201.567 1407.59 200.982C1404.84 200.75 1402.15 200.457 1399.41 200.159C1397.65 199.927 1396.25 201.683 1396.9 203.378C1397.89 206.012 1398.82 208.652 1399.76 211.348C1401.81 217.323 1403.91 223.354 1405.84 229.445L1406.48 231.555C1416.65 224.585 1424.55 214.512 1428.7 202.677L1426.65 202.561ZM1423.55 152.652L1421.98 154.354C1417.59 159.043 1413.09 163.549 1408.59 168.061C1405.72 170.988 1402.62 173.799 1399.64 176.671C1403.62 177.665 1407.59 178.72 1411.57 179.89C1417.71 181.646 1423.79 183.348 1429.87 185.335L1432.03 186.037C1432.09 185.098 1432.09 184.104 1432.09 183.11C1432.09 171.927 1428.99 161.5 1423.55 152.652ZM1423.55 152.652L1421.98 154.354C1417.59 159.043 1413.09 163.549 1408.59 168.061C1405.72 170.988 1402.62 173.799 1399.64 176.671C1403.62 177.665 1407.59 178.72 1411.57 179.89C1417.71 181.646 1423.79 183.348 1429.87 185.335L1432.03 186.037C1432.09 185.098 1432.09 184.104 1432.09 183.11C1432.09 171.927 1428.99 161.5 1423.55 152.652ZM1426.65 202.561C1420.28 202.152 1413.96 201.567 1407.59 200.982C1404.84 200.75 1402.15 200.457 1399.41 200.159C1397.65 199.927 1396.25 201.683 1396.9 203.378C1397.89 206.012 1398.82 208.652 1399.76 211.348C1401.81 217.323 1403.91 223.354 1405.84 229.445L1406.48 231.555C1416.65 224.585 1424.55 214.512 1428.7 202.677L1426.65 202.561ZM1382.05 125.183L1382.34 127.47C1383.16 133.793 1383.74 140.183 1384.33 146.506C1384.56 149.024 1384.8 151.488 1384.97 154.006C1385.09 155.939 1387.25 156.933 1388.83 155.823C1390.82 154.36 1392.87 152.896 1394.97 151.488C1400.23 147.915 1405.43 144.341 1410.81 140.884L1412.8 139.652C1404.44 132.037 1393.8 126.823 1382.05 125.183ZM1389.94 236.707C1386.55 231.317 1383.39 225.756 1380.23 220.25C1378.83 217.848 1377.48 215.445 1376.2 212.988C1375.26 211.287 1372.86 211.287 1371.93 212.988C1370.58 215.506 1369.18 217.97 1367.72 220.366C1364.51 225.872 1361.29 231.378 1357.9 236.768L1356.43 239.11C1361.87 240.811 1367.66 241.689 1373.62 241.689C1379.76 241.689 1385.73 240.75 1391.28 238.933L1389.94 236.707ZM1382.05 125.183L1382.34 127.47C1383.16 133.793 1383.74 140.183 1384.33 146.506C1384.56 149.024 1384.8 151.488 1384.97 154.006C1385.09 155.939 1387.25 156.933 1388.83 155.823C1390.82 154.36 1392.87 152.896 1394.97 151.488C1400.23 147.915 1405.43 144.341 1410.81 140.884L1412.8 139.652C1404.44 132.037 1393.8 126.823 1382.05 125.183ZM1426.65 202.561C1420.28 202.152 1413.96 201.567 1407.59 200.982C1404.84 200.75 1402.15 200.457 1399.41 200.159C1397.65 199.927 1396.25 201.683 1396.9 203.378C1397.89 206.012 1398.82 208.652 1399.76 211.348C1401.81 217.323 1403.91 223.354 1405.84 229.445L1406.48 231.555C1416.65 224.585 1424.55 214.512 1428.7 202.677L1426.65 202.561ZM1423.55 152.652L1421.98 154.354C1417.59 159.043 1413.09 163.549 1408.59 168.061C1405.72 170.988 1402.62 173.799 1399.64 176.671C1403.62 177.665 1407.59 178.72 1411.57 179.89C1417.71 181.646 1423.79 183.348 1429.87 185.335L1432.03 186.037C1432.09 185.098 1432.09 184.104 1432.09 183.11C1432.09 171.927 1428.99 161.5 1423.55 152.652ZM1423.55 152.652L1421.98 154.354C1417.59 159.043 1413.09 163.549 1408.59 168.061C1405.72 170.988 1402.62 173.799 1399.64 176.671C1403.62 177.665 1407.59 178.72 1411.57 179.89C1417.71 181.646 1423.79 183.348 1429.87 185.335L1432.03 186.037C1432.09 185.098 1432.09 184.104 1432.09 183.11C1432.09 171.927 1428.99 161.5 1423.55 152.652ZM1426.65 202.561C1420.28 202.152 1413.96 201.567 1407.59 200.982C1404.84 200.75 1402.15 200.457 1399.41 200.159C1397.65 199.927 1396.25 201.683 1396.9 203.378C1397.89 206.012 1398.82 208.652 1399.76 211.348C1401.81 217.323 1403.91 223.354 1405.84 229.445L1406.48 231.555C1416.65 224.585 1424.55 214.512 1428.7 202.677L1426.65 202.561ZM1382.05 125.183L1382.34 127.47C1383.16 133.793 1383.74 140.183 1384.33 146.506C1384.56 149.024 1384.8 151.488 1384.97 154.006C1385.09 155.939 1387.25 156.933 1388.83 155.823C1390.82 154.36 1392.87 152.896 1394.97 151.488C1400.23 147.915 1405.43 144.341 1410.81 140.884L1412.8 139.652C1404.44 132.037 1393.8 126.823 1382.05 125.183ZM1389.94 236.707C1386.55 231.317 1383.39 225.756 1380.23 220.25C1378.83 217.848 1377.48 215.445 1376.2 212.988C1375.26 211.287 1372.86 211.287 1371.93 212.988C1370.58 215.506 1369.18 217.97 1367.72 220.366C1364.51 225.872 1361.29 231.378 1357.9 236.768L1356.43 239.11C1361.87 240.811 1367.66 241.689 1373.62 241.689C1379.76 241.689 1385.73 240.75 1391.28 238.933L1389.94 236.707ZM1348.9 199.341C1346.15 199.695 1343.46 200.104 1340.71 200.396C1334.34 201.159 1328.09 201.921 1321.71 202.506L1318.55 202.799C1322.82 214.75 1330.89 224.939 1341.24 231.854L1342.05 229.39C1344.04 223.299 1346.15 217.323 1348.31 211.293C1349.3 208.366 1350.36 205.494 1351.47 202.567C1352.17 200.86 1350.71 199.049 1348.9 199.341ZM1389.94 236.707C1386.55 231.317 1383.39 225.756 1380.23 220.25C1378.83 217.848 1377.48 215.445 1376.2 212.988C1375.26 211.287 1372.86 211.287 1371.93 212.988C1370.58 215.506 1369.18 217.97 1367.72 220.366C1364.51 225.872 1361.29 231.378 1357.9 236.768L1356.43 239.11C1361.87 240.811 1367.66 241.689 1373.62 241.689C1379.76 241.689 1385.73 240.75 1391.28 238.933L1389.94 236.707ZM1382.05 125.183L1382.34 127.47C1383.16 133.793 1383.74 140.183 1384.33 146.506C1384.56 149.024 1384.8 151.488 1384.97 154.006C1385.09 155.939 1387.25 156.933 1388.83 155.823C1390.82 154.36 1392.87 152.896 1394.97 151.488C1400.23 147.915 1405.43 144.341 1410.81 140.884L1412.8 139.652C1404.44 132.037 1393.8 126.823 1382.05 125.183ZM1426.65 202.561C1420.28 202.152 1413.96 201.567 1407.59 200.982C1404.84 200.75 1402.15 200.457 1399.41 200.159C1397.65 199.927 1396.25 201.683 1396.9 203.378C1397.89 206.012 1398.82 208.652 1399.76 211.348C1401.81 217.323 1403.91 223.354 1405.84 229.445L1406.48 231.555C1416.65 224.585 1424.55 214.512 1428.7 202.677L1426.65 202.561ZM1423.55 152.652L1421.98 154.354C1417.59 159.043 1413.09 163.549 1408.59 168.061C1405.72 170.988 1402.62 173.799 1399.64 176.671C1403.62 177.665 1407.59 178.72 1411.57 179.89C1417.71 181.646 1423.79 183.348 1429.87 185.335L1432.03 186.037C1432.09 185.098 1432.09 184.104 1432.09 183.11C1432.09 171.927 1428.99 161.5 1423.55 152.652ZM1423.55 152.652L1421.98 154.354C1417.59 159.043 1413.09 163.549 1408.59 168.061C1405.72 170.988 1402.62 173.799 1399.64 176.671C1403.62 177.665 1407.59 178.72 1411.57 179.89C1417.71 181.646 1423.79 183.348 1429.87 185.335L1432.03 186.037C1432.09 185.098 1432.09 184.104 1432.09 183.11C1432.09 171.927 1428.99 161.5 1423.55 152.652ZM1426.65 202.561C1420.28 202.152 1413.96 201.567 1407.59 200.982C1404.84 200.75 1402.15 200.457 1399.41 200.159C1397.65 199.927 1396.25 201.683 1396.9 203.378C1397.89 206.012 1398.82 208.652 1399.76 211.348C1401.81 217.323 1403.91 223.354 1405.84 229.445L1406.48 231.555C1416.65 224.585 1424.55 214.512 1428.7 202.677L1426.65 202.561ZM1382.05 125.183L1382.34 127.47C1383.16 133.793 1383.74 140.183 1384.33 146.506C1384.56 149.024 1384.8 151.488 1384.97 154.006C1385.09 155.939 1387.25 156.933 1388.83 155.823C1390.82 154.36 1392.87 152.896 1394.97 151.488C1400.23 147.915 1405.43 144.341 1410.81 140.884L1412.8 139.652C1404.44 132.037 1393.8 126.823 1382.05 125.183ZM1389.94 236.707C1386.55 231.317 1383.39 225.756 1380.23 220.25C1378.83 217.848 1377.48 215.445 1376.2 212.988C1375.26 211.287 1372.86 211.287 1371.93 212.988C1370.58 215.506 1369.18 217.97 1367.72 220.366C1364.51 225.872 1361.29 231.378 1357.9 236.768L1356.43 239.11C1361.87 240.811 1367.66 241.689 1373.62 241.689C1379.76 241.689 1385.73 240.75 1391.28 238.933L1389.94 236.707ZM1348.9 199.341C1346.15 199.695 1343.46 200.104 1340.71 200.396C1334.34 201.159 1328.09 201.921 1321.71 202.506L1318.55 202.799C1322.82 214.75 1330.89 224.939 1341.24 231.854L1342.05 229.39C1344.04 223.299 1346.15 217.323 1348.31 211.293C1349.3 208.366 1350.36 205.494 1351.47 202.567C1352.17 200.86 1350.71 199.049 1348.9 199.341ZM1348.9 199.341C1346.15 199.695 1343.46 200.104 1340.71 200.396C1334.34 201.159 1328.09 201.921 1321.71 202.506L1318.55 202.799C1322.82 214.75 1330.89 224.939 1341.24 231.854L1342.05 229.39C1344.04 223.299 1346.15 217.323 1348.31 211.293C1349.3 208.366 1350.36 205.494 1351.47 202.567C1352.17 200.86 1350.71 199.049 1348.9 199.341ZM1389.94 236.707C1386.55 231.317 1383.39 225.756 1380.23 220.25C1378.83 217.848 1377.48 215.445 1376.2 212.988C1375.26 211.287 1372.86 211.287 1371.93 212.988C1370.58 215.506 1369.18 217.97 1367.72 220.366C1364.51 225.872 1361.29 231.378 1357.9 236.768L1356.43 239.11C1361.87 240.811 1367.66 241.689 1373.62 241.689C1379.76 241.689 1385.73 240.75 1391.28 238.933L1389.94 236.707ZM1382.05 125.183L1382.34 127.47C1383.16 133.793 1383.74 140.183 1384.33 146.506C1384.56 149.024 1384.8 151.488 1384.97 154.006C1385.09 155.939 1387.25 156.933 1388.83 155.823C1390.82 154.36 1392.87 152.896 1394.97 151.488C1400.23 147.915 1405.43 144.341 1410.81 140.884L1412.8 139.652C1404.44 132.037 1393.8 126.823 1382.05 125.183ZM1426.65 202.561C1420.28 202.152 1413.96 201.567 1407.59 200.982C1404.84 200.75 1402.15 200.457 1399.41 200.159C1397.65 199.927 1396.25 201.683 1396.9 203.378C1397.89 206.012 1398.82 208.652 1399.76 211.348C1401.81 217.323 1403.91 223.354 1405.84 229.445L1406.48 231.555C1416.65 224.585 1424.55 214.512 1428.7 202.677L1426.65 202.561ZM1423.55 152.652L1421.98 154.354C1417.59 159.043 1413.09 163.549 1408.59 168.061C1405.72 170.988 1402.62 173.799 1399.64 176.671C1403.62 177.665 1407.59 178.72 1411.57 179.89C1417.71 181.646 1423.79 183.348 1429.87 185.335L1432.03 186.037C1432.09 185.098 1432.09 184.104 1432.09 183.11C1432.09 171.927 1428.99 161.5 1423.55 152.652ZM1423.55 152.652L1421.98 154.354C1417.59 159.043 1413.09 163.549 1408.59 168.061C1405.72 170.988 1402.62 173.799 1399.64 176.671C1403.62 177.665 1407.59 178.72 1411.57 179.89C1417.71 181.646 1423.79 183.348 1429.87 185.335L1432.03 186.037C1432.09 185.098 1432.09 184.104 1432.09 183.11C1432.09 171.927 1428.99 161.5 1423.55 152.652ZM1426.65 202.561C1420.28 202.152 1413.96 201.567 1407.59 200.982C1404.84 200.75 1402.15 200.457 1399.41 200.159C1397.65 199.927 1396.25 201.683 1396.9 203.378C1397.89 206.012 1398.82 208.652 1399.76 211.348C1401.81 217.323 1403.91 223.354 1405.84 229.445L1406.48 231.555C1416.65 224.585 1424.55 214.512 1428.7 202.677L1426.65 202.561ZM1382.05 125.183L1382.34 127.47C1383.16 133.793 1383.74 140.183 1384.33 146.506C1384.56 149.024 1384.8 151.488 1384.97 154.006C1385.09 155.939 1387.25 156.933 1388.83 155.823C1390.82 154.36 1392.87 152.896 1394.97 151.488C1400.23 147.915 1405.43 144.341 1410.81 140.884L1412.8 139.652C1404.44 132.037 1393.8 126.823 1382.05 125.183ZM1389.94 236.707C1386.55 231.317 1383.39 225.756 1380.23 220.25C1378.83 217.848 1377.48 215.445 1376.2 212.988C1375.26 211.287 1372.86 211.287 1371.93 212.988C1370.58 215.506 1369.18 217.97 1367.72 220.366C1364.51 225.872 1361.29 231.378 1357.9 236.768L1356.43 239.11C1361.87 240.811 1367.66 241.689 1373.62 241.689C1379.76 241.689 1385.73 240.75 1391.28 238.933L1389.94 236.707ZM1348.9 199.341C1346.15 199.695 1343.46 200.104 1340.71 200.396C1334.34 201.159 1328.09 201.921 1321.71 202.506L1318.55 202.799C1322.82 214.75 1330.89 224.939 1341.24 231.854L1342.05 229.39C1344.04 223.299 1346.15 217.323 1348.31 211.293C1349.3 208.366 1350.36 205.494 1351.47 202.567C1352.17 200.86 1350.71 199.049 1348.9 199.341ZM1345.62 172.628C1343.63 170.811 1341.71 168.994 1339.77 167.061C1335.21 162.549 1330.71 158.098 1326.27 153.47L1324.4 151.537C1318.55 160.616 1315.16 171.451 1315.16 183.11C1315.16 184.226 1315.22 185.274 1315.22 186.329L1317.97 185.39C1323.99 183.226 1330.07 181.348 1336.09 179.36C1338.96 178.421 1341.82 177.604 1344.68 176.726C1346.5 176.201 1347.02 173.915 1345.62 172.628ZM1348.9 199.341C1346.15 199.695 1343.46 200.104 1340.71 200.396C1334.34 201.159 1328.09 201.921 1321.71 202.506L1318.55 202.799C1322.82 214.75 1330.89 224.939 1341.24 231.854L1342.05 229.39C1344.04 223.299 1346.15 217.323 1348.31 211.293C1349.3 208.366 1350.36 205.494 1351.47 202.567C1352.17 200.86 1350.71 199.049 1348.9 199.341ZM1389.94 236.707C1386.55 231.317 1383.39 225.756 1380.23 220.25C1378.83 217.848 1377.48 215.445 1376.2 212.988C1375.26 211.287 1372.86 211.287 1371.93 212.988C1370.58 215.506 1369.18 217.97 1367.72 220.366C1364.51 225.872 1361.29 231.378 1357.9 236.768L1356.43 239.11C1361.87 240.811 1367.66 241.689 1373.62 241.689C1379.76 241.689 1385.73 240.75 1391.28 238.933L1389.94 236.707ZM1382.05 125.183L1382.34 127.47C1383.16 133.793 1383.74 140.183 1384.33 146.506C1384.56 149.024 1384.8 151.488 1384.97 154.006C1385.09 155.939 1387.25 156.933 1388.83 155.823C1390.82 154.36 1392.87 152.896 1394.97 151.488C1400.23 147.915 1405.43 144.341 1410.81 140.884L1412.8 139.652C1404.44 132.037 1393.8 126.823 1382.05 125.183ZM1426.65 202.561C1420.28 202.152 1413.96 201.567 1407.59 200.982C1404.84 200.75 1402.15 200.457 1399.41 200.159C1397.65 199.927 1396.25 201.683 1396.9 203.378C1397.89 206.012 1398.82 208.652 1399.76 211.348C1401.81 217.323 1403.91 223.354 1405.84 229.445L1406.48 231.555C1416.65 224.585 1424.55 214.512 1428.7 202.677L1426.65 202.561ZM1423.55 152.652L1421.98 154.354C1417.59 159.043 1413.09 163.549 1408.59 168.061C1405.72 170.988 1402.62 173.799 1399.64 176.671C1403.62 177.665 1407.59 178.72 1411.57 179.89C1417.71 181.646 1423.79 183.348 1429.87 185.335L1432.03 186.037C1432.09 185.098 1432.09 184.104 1432.09 183.11C1432.09 171.927 1428.99 161.5 1423.55 152.652ZM1423.55 152.652L1421.98 154.354C1417.59 159.043 1413.09 163.549 1408.59 168.061C1405.72 170.988 1402.62 173.799 1399.64 176.671C1403.62 177.665 1407.59 178.72 1411.57 179.89C1417.71 181.646 1423.79 183.348 1429.87 185.335L1432.03 186.037C1432.09 185.098 1432.09 184.104 1432.09 183.11C1432.09 171.927 1428.99 161.5 1423.55 152.652ZM1407.59 200.982C1404.84 200.75 1402.15 200.457 1399.41 200.159C1397.65 199.927 1396.25 201.683 1396.9 203.378C1397.89 206.012 1398.82 208.652 1399.76 211.348C1401.81 217.323 1403.91 223.354 1405.84 229.445L1406.48 231.555C1416.65 224.585 1424.55 214.512 1428.7 202.677L1426.65 202.561C1420.29 202.152 1413.97 201.567 1407.59 200.982ZM1412.8 139.652C1404.44 132.037 1393.8 126.823 1382.05 125.183L1382.34 127.47C1383.16 133.793 1383.74 140.183 1384.33 146.506C1384.56 149.024 1384.8 151.488 1384.97 154.006C1385.09 155.939 1387.25 156.933 1388.83 155.823C1390.82 154.36 1392.87 152.896 1394.97 151.488C1400.23 147.915 1405.43 144.341 1410.81 140.884L1412.8 139.652ZM1380.23 220.25C1378.83 217.848 1377.48 215.445 1376.2 212.988C1375.26 211.287 1372.86 211.287 1371.93 212.988C1370.58 215.506 1369.18 217.97 1367.72 220.366C1364.51 225.872 1361.29 231.378 1357.9 236.768L1356.43 239.11C1361.87 240.811 1367.66 241.689 1373.62 241.689C1379.76 241.689 1385.73 240.75 1391.28 238.933L1389.93 236.707C1386.55 231.323 1383.39 225.756 1380.23 220.25ZM1348.9 199.341C1346.15 199.695 1343.46 200.104 1340.71 200.396C1334.34 201.159 1328.09 201.921 1321.71 202.506L1318.55 202.799C1322.82 214.75 1330.89 224.939 1341.24 231.854L1342.05 229.39C1344.04 223.299 1346.15 217.323 1348.31 211.293C1349.3 208.366 1350.36 205.494 1351.47 202.567C1352.17 200.86 1350.71 199.049 1348.9 199.341ZM1344.68 176.726C1346.49 176.201 1347.03 173.915 1345.62 172.628C1343.63 170.811 1341.71 168.994 1339.77 167.061C1335.21 162.549 1330.71 158.098 1326.27 153.47L1324.4 151.537C1318.55 160.616 1315.16 171.451 1315.16 183.11C1315.16 184.226 1315.22 185.274 1315.22 186.329L1317.97 185.39C1323.99 183.226 1330.07 181.348 1336.09 179.36C1338.96 178.427 1341.82 177.61 1344.68 176.726ZM1500.67 203.5L1478.34 105.207C1477.34 100.817 1474.42 97.1829 1470.38 95.189L1380 51.4939C1375.96 49.5 1371.29 49.5 1367.26 51.4939L1276.87 95.189C1272.84 97.1829 1269.91 100.811 1268.92 105.207L1246.59 203.5C1245.59 207.89 1246.65 212.463 1249.39 215.921L1311.95 294.762C1314.75 298.274 1319.02 300.329 1323.46 300.329H1423.79C1428.23 300.329 1432.5 298.28 1435.3 294.762L1497.86 215.921C1500.61 212.457 1501.66 207.89 1500.67 203.5ZM1469.45 207.598C1467.7 208.006 1465.95 207.598 1464.54 206.72C1461.68 204.787 1458.64 203.732 1455.6 202.854C1454.08 202.445 1452.5 202.091 1450.98 201.86C1449.46 201.39 1447.71 201.86 1445.95 202.677C1444.2 203.671 1442.62 203.5 1440.98 203.378H1440.8C1435.77 220.073 1424.73 234.189 1410.11 243.152V243.213C1410.58 244.738 1411.1 246.201 1410.63 248.195C1410.23 250.128 1410.16 251.884 1410.99 253.293C1411.63 254.701 1412.34 256.165 1413.09 257.512C1414.67 260.262 1416.43 263.018 1418.99 265.305C1421.57 267.707 1421.74 271.689 1419.4 274.323C1417.01 276.902 1413.03 277.073 1410.4 274.732C1409.05 273.5 1408.35 271.86 1408.35 270.165C1408.23 266.707 1407.35 263.665 1406.3 260.616C1405.77 259.152 1405.19 257.689 1404.49 256.226C1403.96 254.701 1402.56 253.646 1400.86 252.652C1399.23 251.774 1398.4 250.543 1397.59 249.195C1390.1 251.951 1382.04 253.415 1373.62 253.415C1365.32 253.415 1357.37 251.951 1349.99 249.317C1349.29 250.604 1348.48 251.774 1346.84 252.659C1345.14 253.598 1343.74 254.707 1343.21 256.232C1342.51 257.64 1341.87 259.104 1341.34 260.567C1340.29 263.616 1339.35 266.659 1339.29 270.116C1339.18 273.628 1336.2 276.384 1332.69 276.268C1329.18 276.152 1326.43 273.226 1326.55 269.707C1326.61 267.89 1327.43 266.311 1328.65 265.195C1331.23 262.854 1332.98 260.159 1334.62 257.463C1335.38 256.055 1336.08 254.652 1336.72 253.189C1337.54 251.841 1337.48 250.024 1337.13 248.091C1336.72 246.274 1337.13 244.811 1337.6 243.463C1322.92 234.616 1311.7 220.561 1306.55 203.866C1305.21 203.982 1303.93 203.982 1302.4 203.22C1300.59 202.457 1298.9 201.988 1297.37 202.518C1295.79 202.811 1294.27 203.22 1292.76 203.689C1289.71 204.683 1286.73 205.799 1283.93 207.787C1281.06 209.835 1277.09 209.134 1275.04 206.262C1273.05 203.39 1273.7 199.409 1276.56 197.415C1278.02 196.36 1279.84 196.006 1281.47 196.299C1284.8 197 1288.02 196.768 1291.18 196.36C1292.76 196.183 1294.34 195.89 1295.85 195.482C1297.43 195.366 1298.84 194.195 1300.12 192.732C1301.23 191.445 1302.52 190.915 1303.8 190.445C1303.57 188.043 1303.45 185.585 1303.45 183.122C1303.45 168.128 1308.13 154.244 1316.14 142.823C1315.09 141.768 1314.09 140.713 1313.68 138.841C1313.16 136.97 1312.46 135.329 1311.11 134.451C1309.88 133.396 1308.65 132.457 1307.37 131.579C1304.68 129.823 1301.93 128.183 1298.65 127.189C1295.26 126.25 1293.27 122.677 1294.27 119.341C1295.26 115.945 1298.77 114.012 1302.16 114.951C1303.85 115.476 1305.26 116.652 1306.02 118.116C1307.6 121.165 1309.76 123.561 1312.04 125.787C1313.15 126.902 1314.38 127.951 1315.61 128.89C1316.72 130.061 1318.48 130.415 1320.4 130.53C1322.45 130.591 1323.73 131.47 1325.08 132.348L1325.14 132.409C1336.13 121.75 1350.63 114.72 1366.71 113.195C1366.88 111.616 1367 110.03 1368.23 108.451C1369.4 106.872 1370.21 105.287 1370.04 103.707C1370.1 102.128 1370.04 100.543 1369.92 98.9024C1369.57 95.7378 1369.1 92.5732 1367.76 89.4146C1366.35 86.1951 1367.87 82.4451 1371.09 81.0366C1374.3 79.689 1378.05 81.1524 1379.45 84.378C1380.15 86.0793 1380.09 87.8902 1379.45 89.4146C1378.1 92.5793 1377.64 95.7378 1377.29 98.9024C1377.17 100.543 1377.11 102.122 1377.17 103.707C1376.99 105.287 1377.81 106.872 1378.98 108.451C1380.21 110.03 1380.33 111.616 1380.5 113.195C1396.99 114.774 1411.84 122.098 1422.95 133.226C1424.29 132.348 1425.57 131.409 1427.62 131.354C1429.55 131.238 1431.3 130.884 1432.41 129.713C1433.64 128.72 1434.81 127.665 1435.98 126.549C1438.2 124.323 1440.37 121.921 1441.95 118.878C1443.52 115.713 1447.38 114.488 1450.48 116.128C1453.64 117.707 1454.87 121.573 1453.23 124.683C1452.41 126.323 1451.01 127.439 1449.37 127.902C1446.1 128.841 1443.35 130.537 1440.72 132.293C1439.43 133.232 1438.15 134.165 1436.98 135.22C1435.63 136.098 1434.93 137.738 1434.4 139.61C1433.99 141.604 1432.88 142.713 1431.77 143.884C1439.37 155.073 1443.76 168.604 1443.76 183.128C1443.76 185.354 1443.65 187.579 1443.47 189.75H1443.53C1445.05 190.22 1446.57 190.628 1447.91 192.207C1449.26 193.616 1450.66 194.665 1452.24 194.787C1453.82 195.14 1455.34 195.372 1456.92 195.549C1460.13 195.841 1463.29 195.957 1466.68 195.195C1470.13 194.433 1473.52 196.604 1474.28 200.055C1475.06 203.439 1472.9 206.835 1469.45 207.598ZM1421.98 154.354C1417.59 159.043 1413.09 163.549 1408.59 168.061C1405.72 170.988 1402.62 173.799 1399.64 176.671C1403.62 177.665 1407.59 178.72 1411.57 179.89C1417.71 181.646 1423.79 183.348 1429.87 185.335L1432.03 186.037C1432.09 185.098 1432.09 184.104 1432.09 183.11C1432.09 171.921 1428.99 161.494 1423.55 152.652L1421.98 154.354ZM1407.59 200.982C1404.84 200.75 1402.15 200.457 1399.41 200.159C1397.65 199.927 1396.25 201.683 1396.9 203.378C1397.89 206.012 1398.82 208.652 1399.76 211.348C1401.81 217.323 1403.91 223.354 1405.84 229.445L1406.48 231.555C1416.65 224.585 1424.55 214.512 1428.7 202.677L1426.65 202.561C1420.29 202.152 1413.97 201.567 1407.59 200.982ZM1412.8 139.652C1404.44 132.037 1393.8 126.823 1382.05 125.183L1382.34 127.47C1383.16 133.793 1383.74 140.183 1384.33 146.506C1384.56 149.024 1384.8 151.488 1384.97 154.006C1385.09 155.939 1387.25 156.933 1388.83 155.823C1390.82 154.36 1392.87 152.896 1394.97 151.488C1400.23 147.915 1405.43 144.341 1410.81 140.884L1412.8 139.652ZM1380.23 220.25C1378.83 217.848 1377.48 215.445 1376.2 212.988C1375.26 211.287 1372.86 211.287 1371.93 212.988C1370.58 215.506 1369.18 217.97 1367.72 220.366C1364.51 225.872 1361.29 231.378 1357.9 236.768L1356.43 239.11C1361.87 240.811 1367.66 241.689 1373.62 241.689C1379.76 241.689 1385.73 240.75 1391.28 238.933L1389.93 236.707C1386.55 231.323 1383.39 225.756 1380.23 220.25ZM1362.93 146.506C1363.51 140.177 1364.1 133.793 1364.91 127.47L1365.21 125.183C1353.93 126.762 1343.7 131.628 1335.51 138.774L1337.32 139.89C1342.76 143.287 1348.02 146.86 1353.28 150.433C1356.32 152.366 1359.18 154.53 1362.05 156.585C1362.29 153.238 1362.58 149.841 1362.93 146.506ZM1348.9 199.341C1346.15 199.695 1343.46 200.104 1340.71 200.396C1334.34 201.159 1328.09 201.921 1321.71 202.506L1318.55 202.799C1322.82 214.75 1330.89 224.939 1341.24 231.854L1342.05 229.39C1344.04 223.299 1346.15 217.323 1348.31 211.293C1349.3 208.366 1350.36 205.494 1351.47 202.567C1352.17 200.86 1350.71 199.049 1348.9 199.341ZM1344.68 176.726C1346.49 176.201 1347.03 173.915 1345.62 172.628C1343.63 170.811 1341.71 168.994 1339.77 167.061C1335.21 162.549 1330.71 158.098 1326.27 153.47L1324.4 151.537C1318.55 160.616 1315.16 171.451 1315.16 183.11C1315.16 184.226 1315.22 185.274 1315.22 186.329L1317.97 185.39C1323.99 183.226 1330.07 181.348 1336.09 179.36C1338.96 178.427 1341.82 177.61 1344.68 176.726ZM1345.62 172.628C1343.63 170.811 1341.71 168.994 1339.77 167.061C1335.21 162.549 1330.71 158.098 1326.27 153.47L1324.4 151.537C1318.55 160.616 1315.16 171.451 1315.16 183.11C1315.16 184.226 1315.22 185.274 1315.22 186.329L1317.97 185.39C1323.99 183.226 1330.07 181.348 1336.09 179.36C1338.96 178.421 1341.82 177.604 1344.68 176.726C1346.5 176.201 1347.02 173.915 1345.62 172.628ZM1348.9 199.341C1346.15 199.695 1343.46 200.104 1340.71 200.396C1334.34 201.159 1328.09 201.921 1321.71 202.506L1318.55 202.799C1322.82 214.75 1330.89 224.939 1341.24 231.854L1342.05 229.39C1344.04 223.299 1346.15 217.323 1348.31 211.293C1349.3 208.366 1350.36 205.494 1351.47 202.567C1352.17 200.86 1350.71 199.049 1348.9 199.341ZM1389.94 236.707C1386.55 231.317 1383.39 225.756 1380.23 220.25C1378.83 217.848 1377.48 215.445 1376.2 212.988C1375.26 211.287 1372.86 211.287 1371.93 212.988C1370.58 215.506 1369.18 217.97 1367.72 220.366C1364.51 225.872 1361.29 231.378 1357.9 236.768L1356.43 239.11C1361.87 240.811 1367.66 241.689 1373.62 241.689C1379.76 241.689 1385.73 240.75 1391.28 238.933L1389.94 236.707ZM1382.05 125.183L1382.34 127.47C1383.16 133.793 1383.74 140.183 1384.33 146.506C1384.56 149.024 1384.8 151.488 1384.97 154.006C1385.09 155.939 1387.25 156.933 1388.83 155.823C1390.82 154.36 1392.87 152.896 1394.97 151.488C1400.23 147.915 1405.43 144.341 1410.81 140.884L1412.8 139.652C1404.44 132.037 1393.8 126.823 1382.05 125.183ZM1426.65 202.561C1420.28 202.152 1413.96 201.567 1407.59 200.982C1404.84 200.75 1402.15 200.457 1399.41 200.159C1397.65 199.927 1396.25 201.683 1396.9 203.378C1397.89 206.012 1398.82 208.652 1399.76 211.348C1401.81 217.323 1403.91 223.354 1405.84 229.445L1406.48 231.555C1416.65 224.585 1424.55 214.512 1428.7 202.677L1426.65 202.561ZM1423.55 152.652L1421.98 154.354C1417.59 159.043 1413.09 163.549 1408.59 168.061C1405.72 170.988 1402.62 173.799 1399.64 176.671C1403.62 177.665 1407.59 178.72 1411.57 179.89C1417.71 181.646 1423.79 183.348 1429.87 185.335L1432.03 186.037C1432.09 185.098 1432.09 184.104 1432.09 183.11C1432.09 171.927 1428.99 161.5 1423.55 152.652ZM1423.55 152.652L1421.98 154.354C1417.59 159.043 1413.09 163.549 1408.59 168.061C1405.72 170.988 1402.62 173.799 1399.64 176.671C1403.62 177.665 1407.59 178.72 1411.57 179.89C1417.71 181.646 1423.79 183.348 1429.87 185.335L1432.03 186.037C1432.09 185.098 1432.09 184.104 1432.09 183.11C1432.09 171.927 1428.99 161.5 1423.55 152.652ZM1426.65 202.561C1420.28 202.152 1413.96 201.567 1407.59 200.982C1404.84 200.75 1402.15 200.457 1399.41 200.159C1397.65 199.927 1396.25 201.683 1396.9 203.378C1397.89 206.012 1398.82 208.652 1399.76 211.348C1401.81 217.323 1403.91 223.354 1405.84 229.445L1406.48 231.555C1416.65 224.585 1424.55 214.512 1428.7 202.677L1426.65 202.561ZM1382.05 125.183L1382.34 127.47C1383.16 133.793 1383.74 140.183 1384.33 146.506C1384.56 149.024 1384.8 151.488 1384.97 154.006C1385.09 155.939 1387.25 156.933 1388.83 155.823C1390.82 154.36 1392.87 152.896 1394.97 151.488C1400.23 147.915 1405.43 144.341 1410.81 140.884L1412.8 139.652C1404.44 132.037 1393.8 126.823 1382.05 125.183ZM1389.94 236.707C1386.55 231.317 1383.39 225.756 1380.23 220.25C1378.83 217.848 1377.48 215.445 1376.2 212.988C1375.26 211.287 1372.86 211.287 1371.93 212.988C1370.58 215.506 1369.18 217.97 1367.72 220.366C1364.51 225.872 1361.29 231.378 1357.9 236.768L1356.43 239.11C1361.87 240.811 1367.66 241.689 1373.62 241.689C1379.76 241.689 1385.73 240.75 1391.28 238.933L1389.94 236.707ZM1348.9 199.341C1346.15 199.695 1343.46 200.104 1340.71 200.396C1334.34 201.159 1328.09 201.921 1321.71 202.506L1318.55 202.799C1322.82 214.75 1330.89 224.939 1341.24 231.854L1342.05 229.39C1344.04 223.299 1346.15 217.323 1348.31 211.293C1349.3 208.366 1350.36 205.494 1351.47 202.567C1352.17 200.86 1350.71 199.049 1348.9 199.341ZM1345.62 172.628C1343.63 170.811 1341.71 168.994 1339.77 167.061C1335.21 162.549 1330.71 158.098 1326.27 153.47L1324.4 151.537C1318.55 160.616 1315.16 171.451 1315.16 183.11C1315.16 184.226 1315.22 185.274 1315.22 186.329L1317.97 185.39C1323.99 183.226 1330.07 181.348 1336.09 179.36C1338.96 178.421 1341.82 177.604 1344.68 176.726C1346.5 176.201 1347.02 173.915 1345.62 172.628ZM1348.9 199.341C1346.15 199.695 1343.46 200.104 1340.71 200.396C1334.34 201.159 1328.09 201.921 1321.71 202.506L1318.55 202.799C1322.82 214.75 1330.89 224.939 1341.24 231.854L1342.05 229.39C1344.04 223.299 1346.15 217.323 1348.31 211.293C1349.3 208.366 1350.36 205.494 1351.47 202.567C1352.17 200.86 1350.71 199.049 1348.9 199.341ZM1389.94 236.707C1386.55 231.317 1383.39 225.756 1380.23 220.25C1378.83 217.848 1377.48 215.445 1376.2 212.988C1375.26 211.287 1372.86 211.287 1371.93 212.988C1370.58 215.506 1369.18 217.97 1367.72 220.366C1364.51 225.872 1361.29 231.378 1357.9 236.768L1356.43 239.11C1361.87 240.811 1367.66 241.689 1373.62 241.689C1379.76 241.689 1385.73 240.75 1391.28 238.933L1389.94 236.707ZM1382.05 125.183L1382.34 127.47C1383.16 133.793 1383.74 140.183 1384.33 146.506C1384.56 149.024 1384.8 151.488 1384.97 154.006C1385.09 155.939 1387.25 156.933 1388.83 155.823C1390.82 154.36 1392.87 152.896 1394.97 151.488C1400.23 147.915 1405.43 144.341 1410.81 140.884L1412.8 139.652C1404.44 132.037 1393.8 126.823 1382.05 125.183ZM1426.65 202.561C1420.28 202.152 1413.96 201.567 1407.59 200.982C1404.84 200.75 1402.15 200.457 1399.41 200.159C1397.65 199.927 1396.25 201.683 1396.9 203.378C1397.89 206.012 1398.82 208.652 1399.76 211.348C1401.81 217.323 1403.91 223.354 1405.84 229.445L1406.48 231.555C1416.65 224.585 1424.55 214.512 1428.7 202.677L1426.65 202.561ZM1423.55 152.652L1421.98 154.354C1417.59 159.043 1413.09 163.549 1408.59 168.061C1405.72 170.988 1402.62 173.799 1399.64 176.671C1403.62 177.665 1407.59 178.72 1411.57 179.89C1417.71 181.646 1423.79 183.348 1429.87 185.335L1432.03 186.037C1432.09 185.098 1432.09 184.104 1432.09 183.11C1432.09 171.927 1428.99 161.5 1423.55 152.652ZM1423.55 152.652L1421.98 154.354C1417.59 159.043 1413.09 163.549 1408.59 168.061C1405.72 170.988 1402.62 173.799 1399.64 176.671C1403.62 177.665 1407.59 178.72 1411.57 179.89C1417.71 181.646 1423.79 183.348 1429.87 185.335L1432.03 186.037C1432.09 185.098 1432.09 184.104 1432.09 183.11C1432.09 171.927 1428.99 161.5 1423.55 152.652ZM1426.65 202.561C1420.28 202.152 1413.96 201.567 1407.59 200.982C1404.84 200.75 1402.15 200.457 1399.41 200.159C1397.65 199.927 1396.25 201.683 1396.9 203.378C1397.89 206.012 1398.82 208.652 1399.76 211.348C1401.81 217.323 1403.91 223.354 1405.84 229.445L1406.48 231.555C1416.65 224.585 1424.55 214.512 1428.7 202.677L1426.65 202.561ZM1382.05 125.183L1382.34 127.47C1383.16 133.793 1383.74 140.183 1384.33 146.506C1384.56 149.024 1384.8 151.488 1384.97 154.006C1385.09 155.939 1387.25 156.933 1388.83 155.823C1390.82 154.36 1392.87 152.896 1394.97 151.488C1400.23 147.915 1405.43 144.341 1410.81 140.884L1412.8 139.652C1404.44 132.037 1393.8 126.823 1382.05 125.183ZM1389.94 236.707C1386.55 231.317 1383.39 225.756 1380.23 220.25C1378.83 217.848 1377.48 215.445 1376.2 212.988C1375.26 211.287 1372.86 211.287 1371.93 212.988C1370.58 215.506 1369.18 217.97 1367.72 220.366C1364.51 225.872 1361.29 231.378 1357.9 236.768L1356.43 239.11C1361.87 240.811 1367.66 241.689 1373.62 241.689C1379.76 241.689 1385.73 240.75 1391.28 238.933L1389.94 236.707ZM1348.9 199.341C1346.15 199.695 1343.46 200.104 1340.71 200.396C1334.34 201.159 1328.09 201.921 1321.71 202.506L1318.55 202.799C1322.82 214.75 1330.89 224.939 1341.24 231.854L1342.05 229.39C1344.04 223.299 1346.15 217.323 1348.31 211.293C1349.3 208.366 1350.36 205.494 1351.47 202.567C1352.17 200.86 1350.71 199.049 1348.9 199.341ZM1389.94 236.707C1386.55 231.317 1383.39 225.756 1380.23 220.25C1378.83 217.848 1377.48 215.445 1376.2 212.988C1375.26 211.287 1372.86 211.287 1371.93 212.988C1370.58 215.506 1369.18 217.97 1367.72 220.366C1364.51 225.872 1361.29 231.378 1357.9 236.768L1356.43 239.11C1361.87 240.811 1367.66 241.689 1373.62 241.689C1379.76 241.689 1385.73 240.75 1391.28 238.933L1389.94 236.707ZM1382.05 125.183L1382.34 127.47C1383.16 133.793 1383.74 140.183 1384.33 146.506C1384.56 149.024 1384.8 151.488 1384.97 154.006C1385.09 155.939 1387.25 156.933 1388.83 155.823C1390.82 154.36 1392.87 152.896 1394.97 151.488C1400.23 147.915 1405.43 144.341 1410.81 140.884L1412.8 139.652C1404.44 132.037 1393.8 126.823 1382.05 125.183ZM1426.65 202.561C1420.28 202.152 1413.96 201.567 1407.59 200.982C1404.84 200.75 1402.15 200.457 1399.41 200.159C1397.65 199.927 1396.25 201.683 1396.9 203.378C1397.89 206.012 1398.82 208.652 1399.76 211.348C1401.81 217.323 1403.91 223.354 1405.84 229.445L1406.48 231.555C1416.65 224.585 1424.55 214.512 1428.7 202.677L1426.65 202.561ZM1423.55 152.652L1421.98 154.354C1417.59 159.043 1413.09 163.549 1408.59 168.061C1405.72 170.988 1402.62 173.799 1399.64 176.671C1403.62 177.665 1407.59 178.72 1411.57 179.89C1417.71 181.646 1423.79 183.348 1429.87 185.335L1432.03 186.037C1432.09 185.098 1432.09 184.104 1432.09 183.11C1432.09 171.927 1428.99 161.5 1423.55 152.652ZM1423.55 152.652L1421.98 154.354C1417.59 159.043 1413.09 163.549 1408.59 168.061C1405.72 170.988 1402.62 173.799 1399.64 176.671C1403.62 177.665 1407.59 178.72 1411.57 179.89C1417.71 181.646 1423.79 183.348 1429.87 185.335L1432.03 186.037C1432.09 185.098 1432.09 184.104 1432.09 183.11C1432.09 171.927 1428.99 161.5 1423.55 152.652ZM1426.65 202.561C1420.28 202.152 1413.96 201.567 1407.59 200.982C1404.84 200.75 1402.15 200.457 1399.41 200.159C1397.65 199.927 1396.25 201.683 1396.9 203.378C1397.89 206.012 1398.82 208.652 1399.76 211.348C1401.81 217.323 1403.91 223.354 1405.84 229.445L1406.48 231.555C1416.65 224.585 1424.55 214.512 1428.7 202.677L1426.65 202.561ZM1382.05 125.183L1382.34 127.47C1383.16 133.793 1383.74 140.183 1384.33 146.506C1384.56 149.024 1384.8 151.488 1384.97 154.006C1385.09 155.939 1387.25 156.933 1388.83 155.823C1390.82 154.36 1392.87 152.896 1394.97 151.488C1400.23 147.915 1405.43 144.341 1410.81 140.884L1412.8 139.652C1404.44 132.037 1393.8 126.823 1382.05 125.183ZM1389.94 236.707C1386.55 231.317 1383.39 225.756 1380.23 220.25C1378.83 217.848 1377.48 215.445 1376.2 212.988C1375.26 211.287 1372.86 211.287 1371.93 212.988C1370.58 215.506 1369.18 217.97 1367.72 220.366C1364.51 225.872 1361.29 231.378 1357.9 236.768L1356.43 239.11C1361.87 240.811 1367.66 241.689 1373.62 241.689C1379.76 241.689 1385.73 240.75 1391.28 238.933L1389.94 236.707ZM1389.94 236.707C1386.55 231.317 1383.39 225.756 1380.23 220.25C1378.83 217.848 1377.48 215.445 1376.2 212.988C1375.26 211.287 1372.86 211.287 1371.93 212.988C1370.58 215.506 1369.18 217.97 1367.72 220.366C1364.51 225.872 1361.29 231.378 1357.9 236.768L1356.43 239.11C1361.87 240.811 1367.66 241.689 1373.62 241.689C1379.76 241.689 1385.73 240.75 1391.28 238.933L1389.94 236.707ZM1382.05 125.183L1382.34 127.47C1383.16 133.793 1383.74 140.183 1384.33 146.506C1384.56 149.024 1384.8 151.488 1384.97 154.006C1385.09 155.939 1387.25 156.933 1388.83 155.823C1390.82 154.36 1392.87 152.896 1394.97 151.488C1400.23 147.915 1405.43 144.341 1410.81 140.884L1412.8 139.652C1404.44 132.037 1393.8 126.823 1382.05 125.183ZM1426.65 202.561C1420.28 202.152 1413.96 201.567 1407.59 200.982C1404.84 200.75 1402.15 200.457 1399.41 200.159C1397.65 199.927 1396.25 201.683 1396.9 203.378C1397.89 206.012 1398.82 208.652 1399.76 211.348C1401.81 217.323 1403.91 223.354 1405.84 229.445L1406.48 231.555C1416.65 224.585 1424.55 214.512 1428.7 202.677L1426.65 202.561ZM1423.55 152.652L1421.98 154.354C1417.59 159.043 1413.09 163.549 1408.59 168.061C1405.72 170.988 1402.62 173.799 1399.64 176.671C1403.62 177.665 1407.59 178.72 1411.57 179.89C1417.71 181.646 1423.79 183.348 1429.87 185.335L1432.03 186.037C1432.09 185.098 1432.09 184.104 1432.09 183.11C1432.09 171.927 1428.99 161.5 1423.55 152.652ZM1423.55 152.652L1421.98 154.354C1417.59 159.043 1413.09 163.549 1408.59 168.061C1405.72 170.988 1402.62 173.799 1399.64 176.671C1403.62 177.665 1407.59 178.72 1411.57 179.89C1417.71 181.646 1423.79 183.348 1429.87 185.335L1432.03 186.037C1432.09 185.098 1432.09 184.104 1432.09 183.11C1432.09 171.927 1428.99 161.5 1423.55 152.652ZM1426.65 202.561C1420.28 202.152 1413.96 201.567 1407.59 200.982C1404.84 200.75 1402.15 200.457 1399.41 200.159C1397.65 199.927 1396.25 201.683 1396.9 203.378C1397.89 206.012 1398.82 208.652 1399.76 211.348C1401.81 217.323 1403.91 223.354 1405.84 229.445L1406.48 231.555C1416.65 224.585 1424.55 214.512 1428.7 202.677L1426.65 202.561ZM1382.05 125.183L1382.34 127.47C1383.16 133.793 1383.74 140.183 1384.33 146.506C1384.56 149.024 1384.8 151.488 1384.97 154.006C1385.09 155.939 1387.25 156.933 1388.83 155.823C1390.82 154.36 1392.87 152.896 1394.97 151.488C1400.23 147.915 1405.43 144.341 1410.81 140.884L1412.8 139.652C1404.44 132.037 1393.8 126.823 1382.05 125.183ZM1389.94 236.707C1386.55 231.317 1383.39 225.756 1380.23 220.25C1378.83 217.848 1377.48 215.445 1376.2 212.988C1375.26 211.287 1372.86 211.287 1371.93 212.988C1370.58 215.506 1369.18 217.97 1367.72 220.366C1364.51 225.872 1361.29 231.378 1357.9 236.768L1356.43 239.11C1361.87 240.811 1367.66 241.689 1373.62 241.689C1379.76 241.689 1385.73 240.75 1391.28 238.933L1389.94 236.707ZM1382.05 125.183L1382.34 127.47C1383.16 133.793 1383.74 140.183 1384.33 146.506C1384.56 149.024 1384.8 151.488 1384.97 154.006C1385.09 155.939 1387.25 156.933 1388.83 155.823C1390.82 154.36 1392.87 152.896 1394.97 151.488C1400.23 147.915 1405.43 144.341 1410.81 140.884L1412.8 139.652C1404.44 132.037 1393.8 126.823 1382.05 125.183ZM1426.65 202.561C1420.28 202.152 1413.96 201.567 1407.59 200.982C1404.84 200.75 1402.15 200.457 1399.41 200.159C1397.65 199.927 1396.25 201.683 1396.9 203.378C1397.89 206.012 1398.82 208.652 1399.76 211.348C1401.81 217.323 1403.91 223.354 1405.84 229.445L1406.48 231.555C1416.65 224.585 1424.55 214.512 1428.7 202.677L1426.65 202.561ZM1423.55 152.652L1421.98 154.354C1417.59 159.043 1413.09 163.549 1408.59 168.061C1405.72 170.988 1402.62 173.799 1399.64 176.671C1403.62 177.665 1407.59 178.72 1411.57 179.89C1417.71 181.646 1423.79 183.348 1429.87 185.335L1432.03 186.037C1432.09 185.098 1432.09 184.104 1432.09 183.11C1432.09 171.927 1428.99 161.5 1423.55 152.652ZM1423.55 152.652L1421.98 154.354C1417.59 159.043 1413.09 163.549 1408.59 168.061C1405.72 170.988 1402.62 173.799 1399.64 176.671C1403.62 177.665 1407.59 178.72 1411.57 179.89C1417.71 181.646 1423.79 183.348 1429.87 185.335L1432.03 186.037C1432.09 185.098 1432.09 184.104 1432.09 183.11C1432.09 171.927 1428.99 161.5 1423.55 152.652ZM1426.65 202.561C1420.28 202.152 1413.96 201.567 1407.59 200.982C1404.84 200.75 1402.15 200.457 1399.41 200.159C1397.65 199.927 1396.25 201.683 1396.9 203.378C1397.89 206.012 1398.82 208.652 1399.76 211.348C1401.81 217.323 1403.91 223.354 1405.84 229.445L1406.48 231.555C1416.65 224.585 1424.55 214.512 1428.7 202.677L1426.65 202.561ZM1382.05 125.183L1382.34 127.47C1383.16 133.793 1383.74 140.183 1384.33 146.506C1384.56 149.024 1384.8 151.488 1384.97 154.006C1385.09 155.939 1387.25 156.933 1388.83 155.823C1390.82 154.36 1392.87 152.896 1394.97 151.488C1400.23 147.915 1405.43 144.341 1410.81 140.884L1412.8 139.652C1404.44 132.037 1393.8 126.823 1382.05 125.183ZM1382.05 125.183L1382.34 127.47C1383.16 133.793 1383.74 140.183 1384.33 146.506C1384.56 149.024 1384.8 151.488 1384.97 154.006C1385.09 155.939 1387.25 156.933 1388.83 155.823C1390.82 154.36 1392.87 152.896 1394.97 151.488C1400.23 147.915 1405.43 144.341 1410.81 140.884L1412.8 139.652C1404.44 132.037 1393.8 126.823 1382.05 125.183ZM1423.55 152.652L1421.98 154.354C1417.59 159.043 1413.09 163.549 1408.59 168.061C1405.72 170.988 1402.62 173.799 1399.64 176.671C1403.62 177.665 1407.59 178.72 1411.57 179.89C1417.71 181.646 1423.79 183.348 1429.87 185.335L1432.03 186.037C1432.09 185.098 1432.09 184.104 1432.09 183.11C1432.09 171.927 1428.99 161.5 1423.55 152.652ZM1423.55 152.652L1421.98 154.354C1417.59 159.043 1413.09 163.549 1408.59 168.061C1405.72 170.988 1402.62 173.799 1399.64 176.671C1403.62 177.665 1407.59 178.72 1411.57 179.89C1417.71 181.646 1423.79 183.348 1429.87 185.335L1432.03 186.037C1432.09 185.098 1432.09 184.104 1432.09 183.11C1432.09 171.927 1428.99 161.5 1423.55 152.652ZM1382.05 125.183L1382.34 127.47C1383.16 133.793 1383.74 140.183 1384.33 146.506C1384.56 149.024 1384.8 151.488 1384.97 154.006C1385.09 155.939 1387.25 156.933 1388.83 155.823C1390.82 154.36 1392.87 152.896 1394.97 151.488C1400.23 147.915 1405.43 144.341 1410.81 140.884L1412.8 139.652C1404.44 132.037 1393.8 126.823 1382.05 125.183ZM1382.05 125.183L1382.34 127.47C1383.16 133.793 1383.74 140.183 1384.33 146.506C1384.56 149.024 1384.8 151.488 1384.97 154.006C1385.09 155.939 1387.25 156.933 1388.83 155.823C1390.82 154.36 1392.87 152.896 1394.97 151.488C1400.23 147.915 1405.43 144.341 1410.81 140.884L1412.8 139.652C1404.44 132.037 1393.8 126.823 1382.05 125.183ZM1423.55 152.652L1421.98 154.354C1417.59 159.043 1413.09 163.549 1408.59 168.061C1405.72 170.988 1402.62 173.799 1399.64 176.671C1403.62 177.665 1407.59 178.72 1411.57 179.89C1417.71 181.646 1423.79 183.348 1429.87 185.335L1432.03 186.037C1432.09 185.098 1432.09 184.104 1432.09 183.11C1432.09 171.927 1428.99 161.5 1423.55 152.652ZM1423.55 152.652L1421.98 154.354C1417.59 159.043 1413.09 163.549 1408.59 168.061C1405.72 170.988 1402.62 173.799 1399.64 176.671C1403.62 177.665 1407.59 178.72 1411.57 179.89C1417.71 181.646 1423.79 183.348 1429.87 185.335L1432.03 186.037C1432.09 185.098 1432.09 184.104 1432.09 183.11C1432.09 171.927 1428.99 161.5 1423.55 152.652ZM1382.05 125.183L1382.34 127.47C1383.16 133.793 1383.74 140.183 1384.33 146.506C1384.56 149.024 1384.8 151.488 1384.97 154.006C1385.09 155.939 1387.25 156.933 1388.83 155.823C1390.82 154.36 1392.87 152.896 1394.97 151.488C1400.23 147.915 1405.43 144.341 1410.81 140.884L1412.8 139.652C1404.44 132.037 1393.8 126.823 1382.05 125.183ZM1382.05 125.183L1382.34 127.47C1383.16 133.793 1383.74 140.183 1384.33 146.506C1384.56 149.024 1384.8 151.488 1384.97 154.006C1385.09 155.939 1387.25 156.933 1388.83 155.823C1390.82 154.36 1392.87 152.896 1394.97 151.488C1400.23 147.915 1405.43 144.341 1410.81 140.884L1412.8 139.652C1404.44 132.037 1393.8 126.823 1382.05 125.183ZM1382.05 125.183L1382.34 127.47C1383.16 133.793 1383.74 140.183 1384.33 146.506C1384.56 149.024 1384.8 151.488 1384.97 154.006C1385.09 155.939 1387.25 156.933 1388.83 155.823C1390.82 154.36 1392.87 152.896 1394.97 151.488C1400.23 147.915 1405.43 144.341 1410.81 140.884L1412.8 139.652C1404.44 132.037 1393.8 126.823 1382.05 125.183Z" fill="#0277BD"/>
</g>
<path d="M1617.27 329.909L1624.3 352.011H1624.57L1631.62 329.909H1638.43L1628.4 359H1620.48L1610.44 329.909H1617.27ZM1645.62 359.412C1644.23 359.412 1642.99 359.17 1641.9 358.688C1640.81 358.195 1639.95 357.471 1639.31 356.514C1638.69 355.548 1638.38 354.346 1638.38 352.906C1638.38 351.694 1638.6 350.676 1639.04 349.852C1639.49 349.028 1640.1 348.366 1640.86 347.864C1641.63 347.362 1642.5 346.983 1643.48 346.727C1644.46 346.472 1645.49 346.292 1646.57 346.188C1647.84 346.055 1648.86 345.932 1649.64 345.818C1650.42 345.695 1650.98 345.515 1651.33 345.278C1651.68 345.042 1651.86 344.691 1651.86 344.227V344.142C1651.86 343.242 1651.57 342.546 1651 342.054C1650.45 341.562 1649.65 341.315 1648.62 341.315C1647.53 341.315 1646.66 341.557 1646.02 342.04C1645.37 342.513 1644.95 343.11 1644.74 343.83L1639.14 343.375C1639.43 342.049 1639.99 340.903 1640.82 339.938C1641.65 338.962 1642.73 338.214 1644.04 337.693C1645.37 337.163 1646.9 336.898 1648.65 336.898C1649.86 336.898 1651.02 337.04 1652.13 337.324C1653.24 337.608 1654.23 338.048 1655.1 338.645C1655.97 339.241 1656.65 340.009 1657.15 340.946C1657.66 341.874 1657.91 342.987 1657.91 344.284V359H1652.17V355.974H1652C1651.65 356.656 1651.18 357.258 1650.59 357.778C1650.01 358.29 1649.3 358.692 1648.48 358.986C1647.65 359.27 1646.7 359.412 1645.62 359.412ZM1647.35 355.236C1648.24 355.236 1649.03 355.061 1649.71 354.71C1650.39 354.35 1650.93 353.867 1651.32 353.261C1651.71 352.655 1651.9 351.969 1651.9 351.202V348.886C1651.71 349.009 1651.45 349.123 1651.12 349.227C1650.8 349.322 1650.43 349.412 1650.02 349.497C1649.62 349.573 1649.21 349.644 1648.8 349.71C1648.4 349.767 1648.03 349.819 1647.69 349.866C1646.98 349.971 1646.36 350.136 1645.83 350.364C1645.3 350.591 1644.89 350.899 1644.6 351.287C1644.3 351.666 1644.16 352.139 1644.16 352.707C1644.16 353.531 1644.46 354.161 1645.05 354.597C1645.66 355.023 1646.43 355.236 1647.35 355.236ZM1676.59 349.71V337.182H1682.64V359H1676.84V355.037H1676.61C1676.12 356.315 1675.3 357.343 1674.15 358.119C1673.01 358.896 1671.63 359.284 1669.99 359.284C1668.53 359.284 1667.25 358.953 1666.14 358.29C1665.03 357.627 1664.16 356.685 1663.54 355.463C1662.92 354.241 1662.61 352.778 1662.6 351.074V337.182H1668.65V349.994C1668.66 351.282 1669.01 352.3 1669.69 353.048C1670.37 353.796 1671.29 354.17 1672.43 354.17C1673.16 354.17 1673.84 354.005 1674.48 353.673C1675.11 353.332 1675.62 352.83 1676.01 352.168C1676.41 351.505 1676.6 350.686 1676.59 349.71ZM1693.54 329.909V359H1687.49V329.909H1693.54ZM1709.99 337.182V341.727H1696.85V337.182H1709.99ZM1699.83 331.955H1705.88V352.295C1705.88 352.854 1705.97 353.29 1706.14 353.602C1706.31 353.905 1706.55 354.118 1706.85 354.241C1707.16 354.365 1707.52 354.426 1707.93 354.426C1708.21 354.426 1708.5 354.402 1708.78 354.355C1709.07 354.298 1709.28 354.256 1709.43 354.227L1710.39 358.73C1710.08 358.825 1709.66 358.934 1709.11 359.057C1708.56 359.189 1707.89 359.27 1707.11 359.298C1705.65 359.355 1704.37 359.161 1703.27 358.716C1702.18 358.271 1701.33 357.58 1700.73 356.642C1700.12 355.705 1699.82 354.521 1699.83 353.091V331.955Z" fill="black"/>
<g clip-path="url(#clip4_1_39)">
<path d="M1531 50L1659.13 299.421L1788.2 50H1531ZM1639.22 149.023H1618.8V128.607H1639.22V149.023ZM1639.22 118.383H1618.8V97.9842H1639.22V118.383ZM1669.82 179.63H1649.41V159.214H1669.82V179.63ZM1669.82 149.007H1649.41V128.607H1669.82V149.007ZM1669.82 118.383H1649.41V97.9842H1669.82V118.383ZM1700.27 149.007H1679.86V128.607H1700.27V149.007ZM1679.86 118.383V97.9842H1700.27V118.383H1679.86Z" fill="black"/>
</g>
<defs>
<linearGradient id="paint0_linear_1_39" x1="278.233" y1="351.767" x2="631.767" y2="-1.76667" gradientUnits="userSpaceOnUse">
<stop stop-color="#2E27AD"/>
<stop offset="1" stop-color="#527FFF"/>
</linearGradient>
<clipPath id="clip0_1_39">
<rect width="250" height="250" fill="white" transform="translate(50 50)"/>
</clipPath>
<clipPath id="clip1_1_39">
<rect width="250" height="250" fill="white" transform="translate(330 50)"/>
</clipPath>
<clipPath id="clip2_1_39">
<rect width="222.222" height="250" fill="white" transform="translate(994 50)"/>
</clipPath>
<clipPath id="clip3_1_39">
<rect width="254.878" height="250" fill="white" transform="translate(1246 50)"/>
</clipPath>
<clipPath id="clip4_1_39">
<rect width="257.202" height="250" fill="white" transform="translate(1531 50)"/>
</clipPath>
</defs>
</svg>
